<svg xmlns="http://www.w3.org/2000/svg" xmlns:xlink="http://www.w3.org/1999/xlink" width="0" height="0" class="hidden">
  

  <symbol xmlns="http://www.w3.org/2000/svg" xmlns:xlink="http://www.w3.org/1999/xlink" viewBox="0 0 512 512" id="cargo">
    <path d="M480 440H478.528C479.424 437.488 480 434.816 480 432V336C480 322.768 469.232 312 456 312H406.528C407.424 309.488 408 306.816 408 304V208C408 194.768 397.232 184 384 184H319.288L269.2 88H280V8H232V88H242.544L190.376 184H128C114.768 184 104 194.768 104 208V304C104 306.816 104.576 309.488 105.472 312H56C42.768 312 32 322.768 32 336V432C32 434.816 32.576 437.488 33.472 440H32C18.768 440 8 450.768 8 464V480C8 493.232 18.768 504 32 504H480C493.232 504 504 493.232 504 480V464C504 450.768 493.232 440 480 440ZM464 336V432C464 436.416 460.416 440 456 440H452.848L419.456 376H432V328H456C460.416 328 464 331.584 464 336ZM192 432V336C192 331.584 195.584 328 200 328H224V376H288V328H312C316.416 328 320 331.584 320 336V432C320 436.416 316.416 440 312 440H200C195.584 440 192 436.416 192 432ZM312 204.632L326.28 232H312V204.632ZM334.632 248L368.024 312H344H312H272C267.584 312 264 308.416 264 304V208C264 203.592 267.584 200 272 200H296V248H334.632ZM411.112 360L394.416 328H416V360H411.112ZM272 328V360H240V328H272ZM336 432V336C336 331.584 339.584 328 344 328H376.368L434.8 440H344C339.584 440 336 436.416 336 432ZM384 200C388.416 200 392 203.592 392 208V304C392 307.752 389.36 310.76 385.872 311.624L327.632 200H384ZM248 24H264V72H248V24ZM255.856 97.024L301.24 184H272C265.832 184 260.256 186.408 256 190.24C251.744 186.4 246.168 184 240 184H208.584L255.856 97.024ZM168 200H200V232H168V200ZM120 304V208C120 203.592 123.584 200 128 200H152V248H216V200H240C244.416 200 248 203.592 248 208V304C248 308.416 244.416 312 240 312H200H168H128C123.584 312 120 308.416 120 304ZM96 328H128V360H96V328ZM48 432V336C48 331.584 51.584 328 56 328H80V376H144V328H168C172.416 328 176 331.584 176 336V432C176 436.416 172.416 440 168 440H56C51.584 440 48 436.416 48 432ZM24 480V464C24 459.584 27.584 456 32 456H56H168H200H312H344H440V488H32C27.584 488 24 484.416 24 480ZM488 480C488 484.416 484.416 488 480 488H456V456H480C484.416 456 488 459.584 488 464V480Z"></path>
  </symbol>


  <symbol xmlns="http://www.w3.org/2000/svg" xmlns:xlink="http://www.w3.org/1999/xlink" id="transportation" viewBox="0 0 480.008 480.008">
    <g>
      <g>
        <rect x="72.005" y="288" width="64" height="16"/>
      </g>
    </g>
    <g>
      <g>
        <path d="M479.161,380.422l-24-48c-1.355-2.711-4.126-4.422-7.156-4.422h-48v-24c0-4.418-3.582-8-8-8h-160c-4.418,0-8,3.582-8,8
          v144c0,4.418,3.582,8,8,8h33.136c4.332,17.046,21.663,27.352,38.708,23.02c11.312-2.875,20.145-11.708,23.02-23.02h58.272
          c4.332,17.046,21.663,27.352,38.708,23.02c11.312-2.875,20.145-11.708,23.02-23.02h25.136c4.418,0,8-3.582,8-8v-64
          C480.005,382.758,479.716,381.533,479.161,380.422z M296.005,464c-8.837,0-16-7.163-16-16s7.163-16,16-16s16,7.163,16,16
          C311.996,456.833,304.838,463.991,296.005,464z M384.005,440h-57.136c-3.627-14.092-16.313-23.956-30.864-24
          c-14.551,0.044-27.237,9.908-30.864,24h-25.136V312h144V440z M432.005,344h11.055l16.001,32h-27.056V344z M416.005,464
          c-8.837,0-16-7.163-16-16s7.163-16,16-16s16,7.163,16,16C431.996,456.833,424.838,463.991,416.005,464z M464.005,440h-17.136
          c-3.627-14.092-16.313-23.956-30.864-24c-5.635,0.032-11.158,1.569-16,4.452V344h16v40c0,4.418,3.582,8,8,8h40V440z"/>
      </g>
    </g>
    <g>
      <g>
        <rect x="176.005" y="112" width="15.992" height="16"/>
      </g>
    </g>
    <g>
      <g>
        <rect x="208.005" y="112" width="15.992" height="16"/>
      </g>
    </g>
    <g>
      <g>
        <rect x="240.005" y="112" width="15.992" height="16"/>
      </g>
    </g>
    <g>
      <g>
        <rect x="272.005" y="112" width="15.992" height="16"/>
      </g>
    </g>
    <g>
      <g>
        <path d="M440.7,133.625l-24.785-24.789c-18.427-18.404-43.387-28.77-69.43-28.836h-62.046L246.79,19.762
          c-1.463-2.339-4.026-3.761-6.785-3.762h-24c-4.42,0.002-8.002,3.587-8,8.008c0,0.652,0.08,1.301,0.238,1.934L221.758,80h-63.8
          L135.669,5.703C134.654,2.318,131.538,0,128.005,0h-40c-4.418,0-8,3.582-8,8v80h0.075c-0.026,2.112,0.79,4.148,2.269,5.656l50,50
          c20.629,20.764,48.707,32.41,77.976,32.344h2.179l-19.878,44.754c-1.793,4.037,0.026,8.764,4.063,10.558
          c0.235,0.104,0.474,0.197,0.718,0.278l23.984,8c3.36,1.119,7.055-0.103,9.086-3.004L272.861,176h150.265
          c13.704,0.025,24.833-11.063,24.859-24.767C447.997,144.628,445.375,138.291,440.7,133.625z M235.571,32l30,48h-27.319l-12.001-48
          H235.571z M96.005,16h26.047l19.2,64H96.005V16z M220.79,222.523l-9.965-3.324L237.118,160h27.41L220.79,222.523z
          M431.333,154.516c-1.333,3.354-4.599,5.536-8.207,5.484H284.054l2.388-3.414c2.532-3.621,1.649-8.61-1.972-11.142
          c-1.344-0.939-2.943-1.444-4.583-1.444h-47.969c-3.163,0-6.029,1.863-7.312,4.754L219.611,160h-9.286
          c-25.023,0.055-49.028-9.904-66.664-27.656L107.317,96h239.168c17.442,0.075,34.411,5.677,48.47,16h-58.95v16h76.441
          l16.961,16.961C431.969,147.438,432.736,151.24,431.333,154.516z"/>
      </g>
    </g>
    <g>
      <g>
        <path d="M196.11,458.121c-5.037-5.409-11.793-8.906-19.118-9.895l30.548-85.535c1.484-4.167-0.691-8.747-4.858-10.231
          c-0.048-0.017-0.097-0.034-0.146-0.05l-19.508-6.503l-15.152-83.337c-0.691-3.805-4.005-6.57-7.871-6.57h-32v-24
          c0-4.418-3.582-8-8-8h-32c-4.418,0-8,3.582-8,8v24h-32c-3.867,0-7.18,2.766-7.871,6.57l-15.152,83.337L5.474,352.41
          c-4.195,1.403-6.457,5.941-5.054,10.135c0.016,0.049,0.033,0.097,0.05,0.146l30.548,85.538
          c-7.313,0.996-14.057,4.491-19.087,9.892C9.036,461.767,4.66,463.925,0.005,464v16c8.669-0.047,16.924-3.715,22.77-10.117
          c2.895-3.649,7.273-5.808,11.93-5.883c1.69-0.014,3.367,0.299,4.939,0.921c0.067,0.03,0.11,0.094,0.178,0.122
          c2.509,1.25,4.787,2.917,6.738,4.93c5.906,6.347,14.17,9.975,22.84,10.027c8.667-0.048,16.92-3.718,22.762-10.121
          c5.033-6.574,14.442-7.824,21.016-2.792c1.048,0.802,1.986,1.74,2.789,2.788c5.836,6.405,14.085,10.076,22.75,10.125
          c8.665-0.052,16.923-3.682,22.82-10.031c1.934-1.998,4.191-3.657,6.676-4.906c0.072-0.03,0.118-0.098,0.188-0.13
          c1.576-0.63,3.259-0.946,4.956-0.932c4.646,0.075,9.013,2.233,11.895,5.879c5.839,6.402,14.089,10.071,22.753,10.121v-16
          C203.359,463.925,198.992,461.767,196.11,458.121z M96.005,240h16v16h-16V240z M96.005,449.043
          c-5.59,1.729-10.647,4.853-14.695,9.078c-5.046,6.581-14.472,7.825-21.053,2.779c-1.044-0.8-1.978-1.735-2.779-2.779
          c-2.483-2.426-5.236-4.56-8.205-6.359l-30.987-86.758L96.005,339.1V449.043z M101.474,320.41l-59.181,19.727L54.681,272h98.648
          l12.388,68.137l-59.181-19.727C104.893,319.863,103.117,319.863,101.474,320.41z M158.721,451.814
          c-2.934,1.791-5.656,3.908-8.114,6.311c-5.023,6.567-14.419,7.818-20.986,2.795c-1.051-0.804-1.991-1.744-2.795-2.795
          c-4.072-4.268-9.177-7.412-14.82-9.127V339.1l77.719,25.904L158.721,451.814z"/>
      </g>
    </g>
    <g>
      <g>
        <rect x="304.005" y="112" width="15.992" height="16"/>
      </g>
    </g>
  </symbol>


  <symbol xmlns="http://www.w3.org/2000/svg" xmlns:xlink="http://www.w3.org/1999/xlink" id="train" viewBox="0 0 511.998 511.998">
    <g>
      <g>
        <path d="M338.833,194.658h-82.834c-4.143,0-7.5,3.358-7.5,7.5c0,4.142,3.357,7.5,7.5,7.5h0.783v42.199c0,4.142,3.358,7.5,7.5,7.5
          h66.268c4.143,0,7.5-3.358,7.5-7.5v-42.199h0.783c4.143,0,7.5-3.358,7.5-7.5C346.333,198.016,342.976,194.658,338.833,194.658z
          M323.05,244.357h-51.268v-34.698h51.268V244.357z"/>
      </g>
    </g>
    <g>
      <g>
        <path d="M231.15,194.658h-82.834c-4.143,0-7.5,3.358-7.5,7.5c0,4.142,3.357,7.5,7.5,7.5h0.783v42.199c0,4.142,3.357,7.5,7.5,7.5
          h66.269c4.143,0,7.5-3.358,7.5-7.5v-42.199h0.782c4.143,0,7.5-3.358,7.5-7.5C238.65,198.016,235.293,194.658,231.15,194.658z
          M215.367,244.357h-51.269v-34.698h51.269V244.357z"/>
      </g>
    </g>
    <g>
      <g>
        <path d="M123.466,194.658H40.633c-4.143,0-7.5,3.358-7.5,7.5c0,4.142,3.357,7.5,7.5,7.5h0.782v42.199c0,4.142,3.357,7.5,7.5,7.5
          h66.269c4.143,0,7.5-3.358,7.5-7.5v-42.199h0.782c4.143,0,7.5-3.358,7.5-7.5C130.966,198.016,127.609,194.658,123.466,194.658z
          M107.684,244.357H56.415v-34.698h51.269V244.357z"/>
      </g>
    </g>
    <g>
      <g>
        <path d="M504.499,368.607h-49.225c3.79-5.182,6.246-11.393,6.864-18.132h0.307c19.16,0,35.802-10.937,44.044-26.89
          c1.419-1.333,2.317-3.209,2.361-5.299c2.03-5.408,3.148-11.257,3.148-17.365c0-13.492-5.332-26.104-15.015-35.519l-10.564-10.564
          l-0.001-0.001l-66.264-66.267c-0.004-0.004-0.008-0.007-0.012-0.01l-20.378-20.379c-9.408-9.634-21.997-14.939-35.447-14.939
          l-117.388-0.001v-17.35c0-4.142-3.357-7.5-7.5-7.5H106.9c-4.143,0-7.5,3.358-7.5,7.5v17.349H81.093c-4.142,0-7.5,3.358-7.5,7.5
          c0,4.142,3.357,7.5,7.5,7.5l283.227,0.001c9.376,0,18.154,3.701,24.778,10.483l7.648,7.649h-8.213
          c-13.271,0-24.067,10.796-24.067,24.067c0,7.951,3.886,15.314,10.427,19.817l34.213,30.322c0.127,0.112,0.257,0.22,0.392,0.324
          c5.709,4.408,12.539,6.737,19.754,6.737l48.758-0.001l8.403,8.403c0.027,0.027,0.055,0.054,0.082,0.081
          c0.459,0.445,0.901,0.902,1.332,1.367H15.001V174.758c0-3.594,2.924-6.519,6.519-6.519l29.566,0.001c4.142,0,7.5-3.358,7.5-7.5
          c0-4.142-3.357-7.5-7.5-7.5l-29.566-0.001c-11.865,0-21.519,9.653-21.519,21.519v110.214c0,0.007-0.001,0.013-0.001,0.019
          c0,0.006,0.001,0.013,0.001,0.019v33.095c0,0.007-0.001,0.013-0.001,0.019c0,0.006,0.001,0.013,0.001,0.019v10.812
          c0,10.2,7.141,18.747,16.682,20.95c0.529,6.957,3.012,13.374,6.908,18.701H7.5c-4.143,0-7.5,3.358-7.5,7.5
          c0,4.142,3.357,7.5,7.5,7.5h45.538c0.007,0,0.013,0,0.019,0c0.007,0,0.013,0,0.019,0h140.777c0.007,0,0.013,0,0.019,0
          c0.007,0,0.013,0,0.019,0h91.081c0.007,0,0.013,0,0.019,0c0.006,0,0.013,0,0.019,0h53.801c0.007,0,0.013,0.001,0.019,0.001h33.135
          c0.007,0,0.013-0.001,0.019-0.001h53.802c0.007,0,0.013,0,0.019,0c0.006,0,0.013,0,0.019,0h78.672c4.143,0,7.5-3.358,7.5-7.5
          C511.996,371.965,508.642,368.607,504.499,368.607z M231.932,153.242L114.4,153.24v-9.849h117.532V153.242z M429.252,252.64
          c-3.79,0-7.382-1.199-10.403-3.47L384.468,218.7c-0.274-0.244-0.566-0.466-0.874-0.667c-2.584-1.688-4.127-4.526-4.127-7.593
          c0-4.999,4.067-9.067,9.067-9.067h23.212l51.264,51.267L429.252,252.64z M15.001,292.492h480.966v-0.001
          c0.679,2.722,1.033,5.546,1.033,8.43c0,3.369-0.493,6.623-1.397,9.704H15.001V292.492z M53.067,368.607h-0.019
          c-10.701-0.005-19.573-7.879-21.193-18.132H74.26C72.639,360.729,63.768,368.602,53.067,368.607z M99.397,368.607H82.524
          c3.79-5.182,6.246-11.394,6.865-18.132h10.008V368.607z M132.533,368.607h-18.136v-18.132h18.136V368.607z M147.533,368.607
          v-18.132h10.008c0.618,6.739,3.075,12.95,6.865,18.132H147.533z M193.882,368.607h-0.019
          c-10.701-0.005-19.572-7.878-21.193-18.132h42.405C213.454,360.729,204.583,368.602,193.882,368.607z M223.34,368.607
          c3.79-5.182,6.246-11.393,6.864-18.132h18.456c0.618,6.739,3.075,12.95,6.865,18.132H223.34z M285.001,368.607h-0.019
          c-10.701-0.005-19.573-7.879-21.194-18.132h42.406C304.573,360.727,295.702,368.602,285.001,368.607z M331.332,368.607h-16.873
          c3.79-5.182,6.246-11.393,6.864-18.132h10.009V368.607z M364.467,368.607h-18.135v-18.132h18.135V368.607z M371.967,335.472
          h-33.135c-0.015,0-0.03,0.002-0.046,0.002H140.074c-0.014,0-0.027-0.002-0.041-0.002h-33.136c-0.014,0-0.027,0.002-0.041,0.002
          H21.519c-3.595,0-6.519-2.924-6.519-6.519v-3.331h0.001h471.571c-6.232,6.088-14.746,9.85-24.126,9.85h-90.433
          C371.997,335.474,371.982,335.472,371.967,335.472z M379.467,368.607v-18.132h10.009c0.618,6.738,3.075,12.95,6.865,18.132
          H379.467z M425.817,368.607h-0.02c-10.702-0.005-19.573-7.878-21.194-18.132h42.406
          C445.39,360.729,436.518,368.602,425.817,368.607z"/>
      </g>
    </g>
  </symbol>

  <symbol xmlns="http://www.w3.org/2000/svg" viewBox="0 0 682 682" id="airplane">
    <g>
      <path d="M650.27 425.397L669.763 405.91C682.031 393.637 682.031 373.671 669.763 361.398C663.816 355.456 655.915 352.181 647.505 352.181C641.194 352.181 635.164 354.027 630.039 357.463L625.932 343.677L647.032 322.573C659.304 310.3 659.304 290.333 647.032 278.066C635.736 266.765 617.927 265.897 605.592 275.404L580.589 191.464C590.574 181.848 600.139 172.491 609.153 163.477C635.128 137.497 656.248 110.004 668.625 86.0507C689.537 45.5674 680.783 23.9274 669.758 12.9021C658.738 1.87676 637.098 -6.87176 596.609 14.0405C572.661 26.4121 545.163 47.5323 519.188 73.5127C510.174 82.5263 500.812 92.0858 491.201 102.071L407.256 77.0683C416.763 64.7382 415.895 46.9293 404.599 35.6285C392.327 23.3608 372.36 23.3556 360.093 35.6285L338.988 56.733L325.197 52.6265C328.633 47.4959 330.479 41.466 330.479 35.1554C330.479 26.75 327.204 18.8436 321.262 12.9021C308.995 0.629197 289.023 0.629197 276.756 12.9021L257.268 32.39L157.936 2.80203C154.396 1.752 150.57 2.71886 147.966 5.32834L122.396 30.8981C118.102 35.1866 118.669 42.5212 123.566 46.1028L374.19 229.551C317.681 293.265 263.246 357.057 224.816 402.635L151.095 374.279C147.389 372.854 143.194 373.743 140.387 376.55L110.082 406.856C106.162 410.78 106.162 417.138 110.082 421.057L261.603 572.578C265.47 576.451 271.937 576.451 275.81 572.578L306.11 542.278C308.917 539.471 309.811 535.271 308.381 531.565L280.031 457.85C325.608 419.42 389.395 364.984 453.114 308.47L473.023 335.677C476.558 340.506 483.726 341.13 488.061 337.013C491.674 333.582 492.173 327.828 489.236 323.815L468.189 295.059C501.509 265.32 534.413 235.316 564.266 207.043L658.899 524.729L645.846 537.777L515.783 360.083C512.508 355.607 506.224 354.635 501.748 357.91C497.267 361.19 496.295 367.474 499.575 371.95L636.562 559.1C640.144 563.996 647.479 564.563 651.767 560.269L677.337 534.699C679.946 532.095 680.913 528.264 679.863 524.729L650.27 425.397ZM374.299 49.8351C378.687 45.4478 386.011 45.4478 390.398 49.8351C394.837 54.2743 394.837 61.4945 390.398 65.9338L385.689 70.6433L360.878 63.2515L374.299 49.8351ZM290.962 27.1087C295.396 22.6694 302.622 22.6694 307.061 27.1087C311.5 31.5479 311.5 38.7682 307.061 43.2074L303.963 46.3003L279.157 38.9137L290.962 27.1087ZM144.883 36.8136L157.936 23.7662L475.622 118.394C447.349 148.252 417.345 181.156 387.601 214.477L144.883 36.8136ZM149.978 395.373L211.134 418.895C195.794 437.161 184.031 451.295 177.091 459.659L131.389 413.956L149.978 395.373ZM191.36 473.928C226.375 431.682 411.456 209.653 533.394 87.7141C557.587 63.5166 583.993 43.171 605.831 31.891C622.226 23.418 644.162 15.7143 655.557 27.1087C666.951 38.503 659.242 60.4393 650.774 76.8343C639.494 98.6718 619.143 125.073 594.946 149.271C473.018 271.199 250.983 456.285 208.738 491.305L191.36 473.928ZM287.292 532.688L268.709 551.271L223.007 505.569C231.365 498.634 245.504 486.871 263.771 471.531L287.292 532.688ZM639.458 375.604C643.897 371.165 651.117 371.165 655.557 375.604C659.996 380.043 659.996 387.264 655.557 391.703L643.752 403.508L636.36 378.702L639.458 375.604ZM616.731 292.267C621.165 287.828 628.391 287.833 632.83 292.267C637.217 296.654 637.217 303.979 632.83 308.366L619.409 321.788L612.017 296.977L616.731 292.267Z"></path>
      <path d="M602.93 579.803L517.218 665.515C513.563 669.175 513.319 675.215 516.682 679.145C520.441 683.532 527.339 683.808 531.424 679.722L617.137 594.009C621.061 590.085 621.061 583.727 617.137 579.803C613.217 575.883 606.855 575.883 602.93 579.803Z"></path>
      <path d="M574.278 551.151C578.203 547.231 578.203 540.869 574.278 536.949C570.359 533.025 563.996 533.025 560.077 536.949L506.504 590.516C502.85 594.176 502.606 600.216 505.969 604.146C509.727 608.533 516.625 608.809 520.711 604.723L574.278 551.151Z"></path>
      <path d="M542.138 497.584C546.062 493.659 546.062 487.296 542.138 483.377C538.213 479.452 531.856 479.452 527.931 483.377L490.432 520.877C486.777 524.531 486.533 530.576 489.901 534.506C493.654 538.893 500.552 539.169 504.638 535.083L542.138 497.584Z"></path>
      <path d="M102.861 70.881C98.9368 66.9616 92.5742 66.9616 88.6548 70.881L2.94224 156.599C-0.982375 160.518 -0.982375 166.881 2.94224 170.8C6.80968 174.668 13.2762 174.668 17.1488 170.8L102.861 85.0876C106.781 81.1629 106.781 74.8056 102.861 70.881Z"></path>
      <path d="M145.715 113.74C141.791 109.816 135.433 109.816 131.514 113.74L77.9415 167.313C74.2819 170.967 74.0428 177.007 77.406 180.937C81.1643 185.324 88.0571 185.6 92.1429 181.514L145.715 127.947C149.64 124.022 149.64 117.66 145.715 113.74Z"></path>
      <path d="M147.581 197.587C151.454 201.455 157.915 201.455 161.788 197.587L199.287 160.088C203.207 156.163 203.207 149.806 199.287 145.881C195.363 141.962 189.005 141.962 185.081 145.881L147.581 183.381C143.662 187.305 143.662 193.663 147.581 197.587Z"></path>
    </g>
    <defs>
      <clipPath id="clip0_2035_1487">
        <rect width="681.333" height="681.333" fill="white"></rect>
      </clipPath>
    </defs>
  </symbol>

  <symbol xmlns="http://www.w3.org/2000/svg" viewBox="0 0 512 512" id="whatsapp-chat">
    <path xmlns="http://www.w3.org/2000/svg" d="M435.922 74.352C387.824 26.434 323.84.027 255.742 0 187.797 0 123.711 26.383 75.297 74.29 26.797 122.276.063 186.05 0 253.628v.125c.008 40.902 10.754 82.164 31.152 119.828L.7 512l140.012-31.848c35.46 17.871 75.027 27.293 114.934 27.309h.101c67.934 0 132.02-26.387 180.441-74.297 48.543-48.027 75.29-111.719 75.32-179.34.02-67.144-26.82-130.883-75.585-179.472zM255.742 467.5h-.09c-35.832-.016-71.336-9.012-102.668-26.023l-6.62-3.594-93.102 21.176 20.222-91.907-3.898-6.722C50.203 327.004 39.96 290.105 39.96 253.71c.074-117.8 96.863-213.75 215.773-213.75 57.446.024 111.422 22.294 151.985 62.7 41.176 41.031 63.844 94.711 63.824 151.153-.047 117.828-96.856 213.687-215.8 213.687zm0 0" data-original="#000000"/><path xmlns="http://www.w3.org/2000/svg" d="M186.152 141.863h-11.21c-3.903 0-10.239 1.461-15.598 7.293-5.364 5.836-20.477 19.942-20.477 48.63s20.965 56.405 23.887 60.3c2.926 3.89 40.469 64.64 99.93 88.012 49.418 19.422 59.476 15.558 70.199 14.586 10.726-.97 34.613-14.102 39.488-27.715s4.875-25.285 3.414-27.723c-1.465-2.43-5.367-3.887-11.215-6.8-5.851-2.919-34.523-17.262-39.886-19.212-5.364-1.941-9.262-2.914-13.164 2.926-3.903 5.828-15.391 19.313-18.805 23.203-3.41 3.895-6.824 4.383-12.676 1.465-5.852-2.926-24.5-9.191-46.848-29.05-17.394-15.458-29.464-35.169-32.879-41.005-3.41-5.832-.363-8.988 2.57-11.898 2.63-2.61 6.18-6.18 9.106-9.582 2.922-3.406 3.754-5.836 5.707-9.727 1.95-3.89.973-7.296-.488-10.21-1.465-2.919-12.691-31.75-17.895-43.282h.004c-4.382-9.71-8.996-10.039-13.164-10.21zm0 0" data-original="#000000"/>
  </symbol>
  <symbol xmlns="http://www.w3.org/2000/svg" fill="none" viewBox="0 0 25 25" id="telegram-new">
    <g clip-path="url(#clip0_655_909)">
      <path d="M12.5 25C19.3927 25 25 19.3927 25 12.5C25 5.60729 19.3927 0 12.5 0C5.60729 0 0 5.60729 0 12.5C0 19.3927 5.60729 25 12.5 25ZM12.5 1.5625C18.5312 1.5625 23.4375 6.46875 23.4375 12.5C23.4375 18.5312 18.5312 23.4375 12.5 23.4375C6.46875 23.4375 1.5625 18.5312 1.5625 12.5C1.5625 6.46875 6.46875 1.5625 12.5 1.5625Z" fill="white"/>
      <path d="M8.22505 14.7448L9.85839 14.0354L9.40005 14.4948C9.2535 14.6411 9.17107 14.8397 9.17089 15.0469V18.1042C9.17089 18.8042 10.0167 19.1437 10.5042 18.6562L12.1438 17.0167L15.7167 18.8031C15.8252 18.8573 15.9448 18.8855 16.0661 18.8854C16.1874 18.8854 16.3069 18.8571 16.4154 18.8028C16.5238 18.7485 16.6182 18.6698 16.6909 18.5727C16.7636 18.4757 16.8128 18.3631 16.8344 18.2437L18.873 7.03436C18.8977 6.89747 18.8854 6.75646 18.8375 6.62588C18.7896 6.4953 18.7077 6.37986 18.6003 6.29146C18.4929 6.20305 18.3638 6.14489 18.2265 6.12295C18.0891 6.10101 17.9484 6.1161 17.8188 6.16665L4.57297 11.351C4.43863 11.4035 4.32145 11.4922 4.23442 11.6073C4.14738 11.7223 4.09389 11.8591 4.07987 12.0027C4.06585 12.1463 4.09185 12.2909 4.15498 12.4206C4.21811 12.5503 4.31591 12.66 4.43755 12.7375L7.4938 14.6875C7.71255 14.8271 7.98859 14.8489 8.22505 14.7448ZM17.0855 8.13332L15.4844 16.9406L12.3386 15.3687C12.192 15.2953 12.0261 15.27 11.8643 15.2964C11.7025 15.3228 11.5532 15.3995 11.4376 15.5156L10.7334 16.2198V15.3729L13.8657 12.2406C14.473 11.6333 13.7896 10.6312 13.0021 10.9719L7.98443 13.1489L6.57401 12.2489L17.0855 8.13332Z" fill="white"/>
    </g>
    <defs>
      <clipPath id="clip0_655_909"><rect width="25" height="25" fill="white"/>
      </clipPath>
    </defs>
  </symbol>
  <symbol xmlns="http://www.w3.org/2000/svg" fill="none" viewBox="0 0 28 40" id="raschet">
    <g clip-path="url(#clip0_655_958)">
      <path d="M11.7412 25.4481C11.7412 21.2773 15.1223 17.8963 19.2931 17.8963M11.7412 25.4481C11.7412 27.9841 12.9913 30.228 14.9088 31.5975H2.46323C1.56952 31.5975 0.844971 30.873 0.844971 29.9792V8.61826C0.844971 7.72449 1.56952 7 2.46323 7H23.8242C24.7179 7 25.4425 7.72449 25.4425 8.61826V21.0638C24.0729 19.1464 21.8291 17.8963 19.2931 17.8963M11.7412 25.4481C11.7412 29.6189 15.1223 33 19.2931 33C23.4639 33 26.845 29.6189 26.845 25.4481C26.845 21.2773 23.4639 17.8963 19.2931 17.8963M13.1437 19.2988H0.844971M5.10638 13.1494H8.88232M6.99435 15.0373V11.2614M17.6748 13.1494H20.9114M17.4051 26.7967H21.1811M17.4051 24.0996H21.1811M5.6458 24.0996L8.3429 26.7967M5.6458 26.7967L8.3429 24.0996M13.1437 21.0638V7" stroke="white" stroke-width="2" stroke-miterlimit="10" stroke-linecap="round" stroke-linejoin="round"/>
    </g>
    <defs>
      <clipPath id="clip0_655_958">
        <rect width="27.69" height="40" fill="white" transform="translate(0.155029)"/>
      </clipPath>
    </defs>
  </symbol>
  <symbol version="1.1" id="telephone" xmlns="http://www.w3.org/2000/svg" xmlns:xlink="http://www.w3.org/1999/xlink" x="0px" y="0px" xml:space="preserve" viewBox="0 0 512.001 512.001">
    <g>
      <g>
        <path d="M485.699,428.109L367.98,310.392c-2.619-2.618-6.452-3.612-10.012-2.594l-17.532,5.009
			c-1.016,0.291-1.98,0.736-2.859,1.323l-18.031,12.032l-26.585,17.74c-52.186-34.814-97.217-80.84-130.893-133.77l19.307-19.307
			c0.002-0.002,0.003-0.003,0.005-0.005l15.032-15.032c1.226-1.226,2.118-2.743,2.594-4.409l5.009-17.532
			c1.018-3.561,0.024-7.393-2.594-10.012L83.705,26.116c-2.828-2.827-7.044-3.741-10.792-2.337l-20.038,7.514
			c-1.362,0.511-2.6,1.308-3.63,2.337c-4.398,4.398-8.629,9.133-12.573,14.072c-0.002,0.002-0.004,0.004-0.005,0.006
			c-53.335,66.77-47.927,162.75,12.579,223.256L240.85,462.568c32.642,32.642,75.599,49.249,118.734,49.245
			c36.82-0.002,73.773-12.106,104.522-36.667c4.944-3.949,9.68-8.181,14.078-12.578c1.029-1.03,1.826-2.268,2.337-3.63l7.514-20.036
			C489.44,435.157,488.526,430.937,485.699,428.109z M62.143,49.599l11.784-4.418l108.832,108.833l-2.635,9.222l-5.952,5.952
			l-57.557-57.557L58.489,53.505C59.688,52.176,60.908,50.873,62.143,49.599z M255.272,448.147L63.667,256.543
			C13.243,206.119,6.377,127.651,45.8,69.658l113.951,113.951l-17.832,17.832c-3.33,3.33-3.946,8.509-1.49,12.528
			c36.842,60.287,87.69,112.408,147.05,150.728c3.413,2.204,7.811,2.17,11.191-0.085l25.241-16.844l118.246,118.246
			C384.164,505.438,305.697,498.571,255.272,448.147z M462.216,449.672c-1.273,1.235-2.577,2.453-3.906,3.654L341.209,336.224
			l6.363-4.245l10.229-2.924l108.833,108.833L462.216,449.672z"></path>
      </g>
    </g>
    <g>
      <g>
        <path d="M274.797,426.202l-72.368-72.368c-3.982-3.982-10.439-3.981-14.422,0c-3.982,3.982-3.982,10.439,0,14.422l72.369,72.368
			c1.99,1.992,4.601,2.987,7.21,2.987s5.22-0.996,7.211-2.987C278.779,436.642,278.779,430.185,274.797,426.202z"></path>
      </g>
    </g>
    <g>
      <g>
        <path d="M175.231,326.639l-4.856-4.857c-3.982-3.982-10.439-3.982-14.422,0c-3.982,3.982-3.982,10.439,0,14.422l4.857,4.857
			c1.992,1.992,4.601,2.987,7.21,2.987c2.609,0,5.22-0.995,7.211-2.987C179.213,337.079,179.213,330.622,175.231,326.639z"></path>
      </g>
    </g>
    <g>
      <g>
        <path d="M244.392,130.35c-5.632,0-10.197,4.565-10.197,10.197c0,5.632,4.565,10.197,10.197,10.197
			c64.542,0,117.052,52.51,117.052,117.052c0,5.632,4.565,10.197,10.197,10.197s10.197-4.565,10.197-10.197
			C381.838,192.009,320.181,130.35,244.392,130.35z"></path>
      </g>
    </g>
    <g>
      <g>
        <path d="M244.392,66.24c-5.632,0-10.197,4.565-10.197,10.197c0,5.632,4.565,10.197,10.197,10.197
			c99.893,0,181.162,81.269,181.162,181.162c0,5.632,4.565,10.197,10.197,10.197c5.632,0,10.197-4.565,10.197-10.197
			C445.948,156.658,355.53,66.24,244.392,66.24z"></path>
      </g>
    </g>
    <g>
      <g>
        <path d="M433.62,78.568C383.075,28.024,315.872,0.187,244.392,0.187c-5.632,0-10.197,4.565-10.197,10.197
			c0,5.632,4.565,10.197,10.197,10.197c136.315,0,247.215,110.9,247.215,247.215c0,5.632,4.565,10.197,10.197,10.197
			c5.632,0,10.197-4.565,10.197-10.197C512.001,196.316,484.164,129.113,433.62,78.568z"></path>
      </g>
    </g>
  </symbol>
  <symbol version="1.1" id="support" xmlns="http://www.w3.org/2000/svg" xmlns:xlink="http://www.w3.org/1999/xlink" x="0px" y="0px" xml:space="preserve" viewBox="0 0 512 512">
    <g>
      <g>
        <path d="M366,396c-5.52,0-10,4.48-10,10c0,5.52,4.48,10,10,10c5.52,0,10-4.48,10-10C376,400.48,371.52,396,366,396z"></path>
      </g>
    </g>
    <g>
      <g>
        <path d="M390.622,363.663l-47.53-15.84l-17.063-34.127c15.372-15.646,26.045-36.348,29.644-57.941L357.801,243H376
			c16.542,0,30-13.458,30-30v-63C406,67.29,338.71,0,256,0c-82.922,0-150,67.097-150,150v63c0,13.036,8.361,24.152,20,28.28V253
			c0,16.542,13.458,30,30,30h8.782c4.335,9.417,9.946,18.139,16.774,25.974c1.416,1.628,2.893,3.206,4.406,4.741l-17.054,34.108
			l-47.531,15.841C66.112,382.092,26,440.271,26,502c0,5.523,4.477,10,10,10h440c5.522,0,10-4.477,10-10
			C486,440.271,445.889,382.092,390.622,363.663z M386,213c0,5.514-4.486,10-10,10h-15.262c2.542-19.69,4.236-40.643,4.917-61.28
			c0.02-0.582,0.036-1.148,0.054-1.72H386V213z M136,223c-5.514,0-10-4.486-10-10v-53h20.298c0.033,1.043,0.068,2.091,0.107,3.146
			c0.001,0.036,0.003,0.071,0.004,0.107c0,0.003,0,0.006,0,0.009c0.7,20.072,2.372,40.481,4.856,59.737H136V223z M156,263
			c-5.514,0-10-4.486-10-10v-10h8.198l2.128,12.759c0.406,2.425,0.905,4.841,1.482,7.241H156z M146.017,140H126.38
			C131.445,72.979,187.377,20,256,20c68.318,0,124.496,52.972,129.619,120h-19.635c-0.72-55.227-45.693-100-101.033-100h-17.9
			C191.712,40,146.736,84.773,146.017,140z M247.05,60h17.9c44.809,0,81.076,36.651,81.05,81.41c0,3.147-0.025,5.887-0.078,8.38
			c0,0.032-0.001,0.065-0.001,0.098l-12.508-1.787c-33.98-4.852-66.064-20.894-90.342-45.172C241.195,101.054,238.652,100,236,100
			c-26.856,0-52.564,12.236-69.558,32.908C170.63,92.189,205.053,60,247.05,60z M178.54,263c-5.006-16.653-10.734-65.653-12-97.053
			l13.459-17.946c12.361-16.476,31.592-26.713,52.049-27.888c26.917,25.616,61.739,42.532,98.537,47.786l14.722,2.104
			c-0.984,20.885-2.995,41.843-5.876,61.118c-0.001,0.006-0.002,0.013-0.003,0.02c-0.916,6.197-1.638,10.185-3.482,21.324
			c-5.296,31.765-28.998,60.49-60.287,68.313c-12.877,3.215-26.443,3.214-39.313,0c-19.537-4.884-37.451-18.402-49.012-37.778
			h20.386c4.128,11.639,15.243,20,28.28,20h20c16.575,0,30-13.424,30-30c0-16.542-13.458-30-30-30h-20
			c-13.327,0-24.278,8.608-28.297,20H178.54z M235.159,341.016c6.859,1.445,13.852,2.184,20.841,2.184
			c5.471,0,10.943-0.458,16.353-1.346l-17.67,18.687L235.159,341.016z M240.935,375.079l-31.718,33.542
			c-8.732-16.714-16.235-34.109-22.389-51.917l11.911-23.822L240.935,375.079z M311.566,329.494l13.604,27.209
			c-6.164,17.838-13.669,35.239-22.392,51.933l-33.948-33.948L311.566,329.494z M226,273c0-5.521,4.478-10,10-10h20
			c5.514,0,10,4.486,10,10c0,5.522-4.479,10-10,10h-20C230.486,283,226,278.514,226,273z M46.4,492
			c3.963-49.539,36.932-94.567,81.302-109.363l42.094-14.028c7.712,21.325,17.266,42.052,28.463,61.74
			c0.019,0.034,0.037,0.068,0.056,0.101c0,0.001,0.001,0.001,0.001,0.002c8.181,14.389,17.389,28.45,27.372,41.799L237.99,492H46.4z
			 M256,483.086l-13.562-21.773c-0.152-0.244-0.314-0.481-0.486-0.711c-8.098-10.802-15.652-22.099-22.532-33.662l35.663-37.714
			l37.578,37.578c-6.926,11.647-14.506,22.991-22.611,33.796C269.56,461.253,270.255,460.224,256,483.086z M274.01,492
			l12.301-19.748c10.027-13.4,19.301-27.574,27.564-42.132c0.05-0.088,0.097-0.178,0.147-0.266c0.006-0.011,0.012-0.021,0.018-0.032
			c11.055-19.5,20.509-40.047,28.164-61.213l42.093,14.028c44.371,14.796,77.34,59.824,81.303,109.363H274.01z"></path>
      </g>
    </g>
    <g>
      <g>
        <path d="M435.546,451.531c-6.683-13.377-16.472-25.261-28.309-34.367c-4.378-3.369-10.656-2.55-14.023,1.828
			c-3.368,4.378-2.549,10.656,1.828,14.024c9.454,7.273,17.272,16.766,22.611,27.453c2.473,4.949,8.483,6.941,13.415,4.477
			C436.008,462.478,438.013,456.472,435.546,451.531z"></path>
      </g>
    </g>
  </symbol>
  <symbol xmlns="http://www.w3.org/2000/svg" viewBox="0 -72 480 480" id="tracking">
    <path d="m120 224c-30.929688 0-56 25.070312-56 56s25.070312 56 56 56 56-25.070312 56-56-25.070312-56-56-56zm0 96c-22.089844 0-40-17.910156-40-40s17.910156-40 40-40 40 17.910156 40 40-17.910156 40-40 40zm0 0"></path>
    <path d="m120 256c-13.253906 0-24 10.746094-24 24s10.746094 24 24 24 24-10.746094 24-24-10.746094-24-24-24zm0 32c-4.417969 0-8-3.582031-8-8s3.582031-8 8-8 8 3.582031 8 8-3.582031 8-8 8zm0 0"></path>
    <path d="m376 224c-30.929688 0-56 25.070312-56 56s25.070312 56 56 56 56-25.070312 56-56-25.070312-56-56-56zm0 96c-22.089844 0-40-17.910156-40-40s17.910156-40 40-40 40 17.910156 40 40-17.910156 40-40 40zm0 0"></path>
    <path d="m376 256c-13.253906 0-24 10.746094-24 24s10.746094 24 24 24 24-10.746094 24-24-10.746094-24-24-24zm0 32c-4.417969 0-8-3.582031-8-8s3.582031-8 8-8 8 3.582031 8 8-3.582031 8-8 8zm0 0"></path>
    <path d="m384 160h-16v-32c0-4.417969-3.582031-8-8-8s-8 3.582031-8 8v32c0 8.835938 7.164062 16 16 16h16c4.417969 0 8-3.582031 8-8s-3.582031-8-8-8zm0 0"></path>
    <path d="m144 48c-30.929688 0-56 25.070312-56 56 0 27.679688 22.320312 96 56 96s56-68.320312 56-96c0-30.929688-25.070312-56-56-56zm0 136c-18.398438 0-40-52.878906-40-80 0-22.089844 17.910156-40 40-40s40 17.910156 40 40c0 27.121094-21.601562 80-40 80zm0 0"></path>
    <path d="m144 80c-13.253906 0-24 10.746094-24 24s10.746094 24 24 24 24-10.746094 24-24-10.746094-24-24-24zm0 32c-4.417969 0-8-3.582031-8-8s3.582031-8 8-8 8 3.582031 8 8-3.582031 8-8 8zm0 0"></path>
    <path d="m192 184c0 4.417969 3.582031 8 8 8h32c4.417969 0 8-3.582031 8-8s-3.582031-8-8-8h-32c-4.417969 0-8 3.582031-8 8zm0 0"></path>
    <path d="m96 184c0-4.417969-3.582031-8-8-8h-32c-4.417969 0-8 3.582031-8 8s3.582031 8 8 8h32c4.417969 0 8-3.582031 8-8zm0 0"></path>
    <path d="m440 192h-10l-26.960938-94.640625c-2.964843-10.300781-12.402343-17.382813-23.117187-17.359375h-91.921875v-40c0-22.089844-17.910156-40-40-40h-216c-17.671875 0-32 14.328125-32 32v224c0 17.671875 14.328125 32 32 32h8c4.417969 0 8-3.582031 8-8s-3.582031-8-8-8h-8c-8.835938 0-16-7.164062-16-16v-224c0-8.835938 7.164062-16 16-16h216c13.253906 0 24 10.746094 24 24v232h-72c-4.417969 0-8 3.582031-8 8s3.582031 8 8 8h96c4.417969 0 8-3.582031 8-8s-3.582031-8-8-8h-8v-64h152c13.253906 0 24 10.746094 24 24v40h-8c-4.417969 0-8 3.582031-8 8s3.582031 8 8 8h16c4.417969 0 8-3.582031 8-8v-48c0-22.089844-17.910156-40-40-40zm-152-96h32v72c0 4.417969 3.582031 8 8 8s8-3.582031 8-8v-72h43.921875c3.671875-.144531 6.972656 2.230469 8 5.761719l25.4375 90.238281h-125.359375zm0 0"></path>
  </symbol>
  <symbol xmlns="http://www.w3.org/2000/svg" viewBox="0 0 480.08177 480" id="contract">
    <path d="m479.199219 113.800781c-1.652344-6.144531-5.683594-11.382812-11.199219-14.558593-5.519531-3.191407-12.082031-4.054688-18.238281-2.402344-6.148438 1.65625-11.386719 5.683594-14.5625 11.199218l-4 6.960938c-3.800781-2.183594-8.65625-.898438-10.878907 2.882812l-20.320312 34.636719-6.960938-4c-1.84375-1.066406-4.039062-1.355469-6.09375-.800781-2.058593.558594-3.808593 1.910156-4.867187 3.761719-2.167969 3.824219-.847656 8.683593 2.960937 10.878906l6.960938 4-68 117.839844-16.800781 44.882812-8 14.957031c-4.683594 8.148438-4.183594 18.277344 1.28125 25.921876l-18 22.078124-5.039063-12.636718c-2.273437-5.632813-7.535156-9.492188-13.585937-9.964844-6.054688-.476562-11.855469 2.515625-14.976563 7.722656l-2.878906 4.878906-2.71875-32c-.625-7.570312-6.488281-13.65625-14.027344-14.570312-7.542968-.910156-14.683594 3.609375-17.09375 10.8125l-19.679687 59.039062c-1.375 4.175782.875 8.675782 5.039062 10.082032.78125.363281 1.621094.582031 2.480469.636718 3.4375.011719 6.5-2.179687 7.601562-5.4375l19.597657-59.039062 2.800781 32.476562c.578125 6.929688 5.558594 12.691407 12.332031 14.261719 6.773438 1.570313 13.78125-1.414062 17.347657-7.378906l2.960937-4.882813 4.960937 12.5625c2.105469 5.292969 6.867188 9.070313 12.503907 9.910157 5.636719.839843 11.292969-1.382813 14.855469-5.832031l18.640624-23.597657c2.0625.539063 4.1875.808594 6.320313.800781 8.574219.066407 16.535156-4.449218 20.878906-11.84375l8-13.359374 30.480469-37.039063 68.71875-119.28125 6.960938 4c1.855468 1.0625 3.207031 2.816406 3.757812 4.882813.554688 2.050781.265625 4.238281-.796875 6.078124l-32 55.441407c-1.207031 1.820312-1.617187 4.054687-1.132813 6.1875.484376 2.128906 1.816407 3.96875 3.691407 5.089843 1.84375 1.070313 4.039062 1.359376 6.09375.804688 2.058593-.558594 3.808593-1.910156 4.867187-3.761719l32-55.441406c3.191406-5.519531 4.054688-12.082031 2.398438-18.238281-1.65625-6.148438-5.683594-11.386719-11.199219-14.5625l-6.960937-4 20-34.640625c2.183593-3.800781.898437-8.652344-2.878907-10.878907l4-6.960937c3.277344-5.605469 4.144531-12.300781 2.398438-18.558594zm-30.160157 2.238281c1.058594-1.851562 2.816407-3.207031 4.882813-3.757812 2.054687-.507812 4.226563-.222656 6.078125.800781 1.855469 1.058594 3.207031 2.816407 3.761719 4.878907.507812 2.054687.222656 4.226562-.800781 6.078124l-4 6.960938-13.921876-8zm-109.039062 223.363282-4-2.320313-11.839844-6.882812 11.359375-30.398438 25.199219 14.558594zm-24 23.117187c-3.378906-2.355469-4.417969-6.886719-2.398438-10.480469l4-6.957031 13.917969 8-4 6.878907c-1.121093 1.945312-3.003906 3.328124-5.195312 3.816406-2.191407.484375-4.484375.03125-6.324219-1.257813zm53.839844-61.277343-27.679688-16 64-110.882813 27.679688 16zm72-124.722657-27.679688-16 16-27.679687 27.679688 16zm0 0"></path>
    <path d="m126.238281 358.519531-28.316406 28.242188-16.960937-16.960938c-3.121094-3.101562-8.160157-3.101562-11.28125 0-1.515626 1.503907-2.367188 3.546875-2.367188 5.679688 0 2.132812.851562 4.179687 2.367188 5.679687l16.960937 16.960938c3 2.976562 7.054687 4.644531 11.28125 4.640625 4.25.023437 8.339844-1.644531 11.359375-4.640625l28.238281-28.320313c2.71875-3.175781 2.535157-7.90625-.417969-10.859375-2.957031-2.957031-7.6875-3.140625-10.863281-.421875zm0 0"></path>
    <path d="m32 380.039062c0 37.558594 30.445312 68 68 68s68-30.441406 68-68c0-4.417968-3.582031-8-8-8s-8 3.582032-8 8c0 28.71875-23.28125 52-52 52s-52-23.28125-52-52 23.28125-52 52-52c11.257812-.03125 22.214844 3.621094 31.199219 10.402344 3.535156 2.652344 8.550781 1.933594 11.199219-1.601562 2.652343-3.535156 1.9375-8.546875-1.597657-11.199219-20.605469-15.453125-48.175781-17.9375-71.210937-6.421875-23.039063 11.519531-37.589844 35.066406-37.589844 60.820312zm0 0"></path>
    <path d="m288 64.039062c4.417969 0 8-3.578124 8-8 0-4.417968-3.582031-8-8-8h-208c-4.417969 0-8 3.582032-8 8v32c0 4.421876 3.582031 8 8 8h208c4.417969 0 8-3.578124 8-8 0-4.417968-3.582031-8-8-8h-200v-16zm0 0"></path>
    <path d="m104 112.039062c-4.417969 0-8 3.582032-8 8 0 4.421876 3.582031 8 8 8h160c4.417969 0 8-3.578124 8-8 0-4.417968-3.582031-8-8-8zm0 0"></path>
    <path d="m312 168.039062h-176c-4.417969 0-8 3.582032-8 8 0 4.421876 3.582031 8 8 8h176c4.417969 0 8-3.578124 8-8 0-4.417968-3.582031-8-8-8zm0 0"></path>
    <path d="m232 224.039062c0-4.417968-3.582031-8-8-8h-160c-4.417969 0-8 3.582032-8 8 0 4.421876 3.582031 8 8 8h160c4.417969 0 8-3.578124 8-8zm0 0"></path>
    <path d="m312 216.039062h-56c-4.417969 0-8 3.582032-8 8 0 4.421876 3.582031 8 8 8h56c4.417969 0 8-3.578124 8-8 0-4.417968-3.582031-8-8-8zm0 0"></path>
    <path d="m144 272.039062c4.417969 0 8-3.578124 8-8 0-4.417968-3.582031-8-8-8h-80c-4.417969 0-8 3.582032-8 8 0 4.421876 3.582031 8 8 8zm0 0"></path>
    <path d="m176 272.039062h56c4.417969 0 8-3.578124 8-8 0-4.417968-3.582031-8-8-8h-56c-4.417969 0-8 3.582032-8 8 0 4.421876 3.582031 8 8 8zm0 0"></path>
    <path d="m360 368.039062c-4.417969 0-8 3.582032-8 8v80c0 4.421876-3.582031 8-8 8h-320c-4.417969 0-8-3.578124-8-8v-432c0-4.417968 3.582031-8 8-8h320c4.417969 0 8 3.582032 8 8v150.242188c0 4.417969 3.582031 8 8 8s8-3.582031 8-8v-150.242188c0-13.253906-10.746094-23.9999995-24-23.9999995h-320c-13.253906 0-24 10.7460935-24 23.9999995v432c0 13.257813 10.746094 24 24 24h320c13.253906 0 24-10.742187 24-24v-80c0-4.417968-3.582031-8-8-8zm0 0"></path>
  </symbol>
  <symbol id="quality" enable-background="new 0 0 511.922 511.922" xmlns="http://www.w3.org/2000/svg" viewBox="0 0 511.922 511.922">
    <g id="XMLID_1364_">
      <g id="XMLID_141_">
        <path id="XMLID_162_" d="m456.775 448.899-64.76-112.168c10.741-9.045 18.164-21.909 20.147-36.486 1.347-9.912 6.445-18.743 14.355-24.866 20.505-15.872 27.967-43.719 18.146-67.719-3.789-9.258-3.789-19.455 0-28.712 9.821-24 2.359-51.846-18.146-67.719-7.91-6.123-13.009-14.954-14.355-24.866-3.495-25.694-23.881-46.08-49.575-49.573-9.911-1.348-18.742-6.446-24.864-14.356-15.874-20.506-43.718-27.967-67.72-18.146-9.258 3.789-19.455 3.789-28.712 0-23.998-9.822-51.846-2.36-67.719 18.146-6.123 7.91-14.954 13.008-24.866 14.356-25.695 3.494-46.08 23.879-49.573 49.574-1.348 9.912-6.446 18.743-14.356 24.866-20.506 15.873-27.967 43.72-18.146 67.719 3.789 9.257 3.789 19.455 0 28.712-9.822 23.999-2.36 51.846 18.146 67.719 7.91 6.123 13.008 14.954 14.356 24.865 2.008 14.769 9.604 27.776 20.573 36.837l-64.558 111.817c-2.022 3.503-1.736 7.879.727 11.087 2.462 3.208 6.613 4.619 10.522 3.572l56.271-15.078 15.013 56.029c1.047 3.907 4.344 6.798 8.354 7.326.438.058.875.086 1.308.086 3.538 0 6.856-1.88 8.657-5l69.662-120.657c5.282-.569 10.542-1.862 15.628-3.944 9.258-3.789 19.456-3.789 28.712 0 5.303 2.171 10.795 3.494 16.304 4.022l69.616 120.579c1.802 3.121 5.119 5 8.657 5 .434 0 .87-.028 1.309-.086 4.01-.528 7.307-3.419 8.354-7.326l15.014-56.029 56.271 15.078c3.904 1.047 8.059-.362 10.521-3.572 2.462-3.208 2.749-7.584.727-11.087zm-306.025 27.115-11.353-42.369c-.687-2.562-2.362-4.746-4.659-6.072s-5.025-1.685-7.588-.999l-42.611 11.417 52.543-91.007c3.715 1.329 7.604 2.288 11.623 2.835 9.912 1.348 18.743 6.446 24.866 14.356 7.771 10.039 18.414 16.944 30.069 20.232zm82.964-112.203c-15.709 6.43-33.937 1.545-44.328-11.877-9.354-12.084-22.845-19.874-37.987-21.932-16.819-2.287-30.164-15.631-32.45-32.451-2.059-15.142-9.848-28.632-21.932-37.987-13.423-10.39-18.307-28.619-11.878-44.328 5.789-14.143 5.789-29.72 0-43.863-6.429-15.709-1.545-33.938 11.878-44.328 12.084-9.354 19.873-22.844 21.932-37.987 2.287-16.819 15.631-30.164 32.45-32.451 15.142-2.058 28.633-9.847 37.987-21.931 7.328-9.467 18.551-14.686 30.043-14.686 4.803 0 9.654.913 14.284 2.808 14.144 5.788 29.722 5.788 43.864 0 15.708-6.43 33.938-1.545 44.328 11.878 9.354 12.084 22.844 19.873 37.985 21.931 16.819 2.287 30.164 15.631 32.451 32.451 2.059 15.143 9.848 28.633 21.932 37.987 13.423 10.39 18.307 28.618 11.878 44.328-5.788 14.143-5.788 29.72 0 43.863 6.429 15.709 1.544 33.938-11.878 44.328-12.084 9.354-19.873 22.844-21.932 37.986-2.287 16.82-15.632 30.165-32.45 32.451-15.143 2.058-28.633 9.847-37.987 21.932-10.391 13.424-28.619 18.307-44.327 11.877-14.143-5.787-29.719-5.787-43.863.001zm151.058 62.763c-5.337-1.431-10.817 1.737-12.247 7.071l-11.354 42.369-52.98-91.765c11.443-3.348 21.879-10.19 29.531-20.074 6.122-7.911 14.953-13.009 24.864-14.356 4.207-.572 8.269-1.605 12.14-3.032l52.656 91.204z"></path>
        <path id="XMLID_1190_" d="m210.202 156.314-31.113 31.112c-1.875 1.875-2.929 4.419-2.929 7.071s1.054 5.196 2.929 7.071l58.353 58.354c1.875 1.875 4.419 2.929 7.071 2.929s5.196-1.054 7.071-2.929l81.25-81.25c3.905-3.905 3.905-10.237 0-14.142l-31.112-31.113c-1.876-1.875-4.419-2.929-7.071-2.929s-5.196 1.054-7.071 2.929l-43.066 43.067-20.168-20.169c-1.875-1.875-4.419-2.929-7.071-2.929-2.654-.001-5.198 1.053-7.073 2.928zm27.239 41.383c1.875 1.875 4.419 2.929 7.071 2.929s5.196-1.054 7.071-2.929l43.066-43.067 16.971 16.971-67.108 67.108-44.21-44.211 16.971-16.97z"></path>
        <path id="XMLID_1191_" d="m385.961 196.67c0-26.564-7.961-52.112-23.021-73.882-14.707-21.257-35.136-37.512-59.078-47.006-5.136-2.035-10.946.476-12.982 5.61s.476 10.946 5.609 12.982c42.203 16.735 69.473 56.889 69.473 102.296 0 60.654-49.346 110-110 110s-110-49.346-110-110c0-45.408 27.27-85.562 69.473-102.297 5.134-2.036 7.646-7.848 5.61-12.982s-7.849-7.646-12.982-5.61c-23.943 9.495-44.372 25.749-59.079 47.006-15.061 21.77-23.022 47.318-23.022 73.882 0 71.682 58.318 130 130 130 71.682.001 129.999-58.317 129.999-129.999z"></path>
        <path id="XMLID_1218_" d="m255.961 86.666c2.63 0 5.21-1.06 7.069-2.93 1.86-1.86 2.931-4.43 2.931-7.07 0-2.63-1.07-5.21-2.931-7.07-1.859-1.86-4.439-2.93-7.069-2.93s-5.21 1.07-7.07 2.93-2.93 4.44-2.93 7.07c0 2.64 1.07 5.21 2.93 7.07 1.86 1.87 4.44 2.93 7.07 2.93z"></path>
      </g>
    </g>
  </symbol>
  <symbol xmlns="http://www.w3.org/2000/svg" viewBox="0 -67 430.08 430" id="fast-delivery">
    <path d="m428.96875 179.441406-21.769531-33.308594c-9.613281-14.71875-25.945313-23.507812-43.699219-23.507812h-56.300781v-32.398438c0-19.78125-16.085938-35.867187-35.867188-35.867187h-105.394531c-5.914062-30.886719-33.101562-54.3203125-65.6875-54.3203125-36.898438 0-66.914062 30.0195315-66.914062 66.9140625 0 23.199219 11.878906 43.664063 29.863281 55.671875h-56.371094c-3.773437 0-6.828125 3.054688-6.828125 6.828125s3.054688 6.828125 6.828125 6.828125h68.265625v13.652344h-27.308594c-3.769531 0-6.824218 3.054687-6.824218 6.828125 0 3.773437 3.054687 6.824219 6.824218 6.824219h27.308594v13.652343h-68.265625c-3.773437 0-6.828125 3.054688-6.828125 6.828125 0 3.773438 3.054688 6.828125 6.828125 6.828125h68.265625v30.234375c-12.035156 5.308594-20.480469 17.316406-20.480469 31.292969v6.738281c0 3.773438 3.058594 6.828125 6.828125 6.828125h60.546875c3.882813 16.703125 18.859375 29.203125 36.730469 29.203125 17.875 0 32.847656-12.5 36.730469-29.203125h131.339843c3.886719 16.703125 18.863282 29.203125 36.730469 29.203125 17.867188 0 32.847657-12.5 36.730469-29.203125h23.003906c3.773438 0 6.824219-3.054687 6.824219-6.828125v-75.984375c0-1.328125-.386719-2.628906-1.109375-3.734375zm-381.980469-112.488281c0-29.367187 23.894531-53.261719 53.261719-53.261719 29.371094 0 53.261719 23.894532 53.261719 53.261719s-23.890625 53.261719-53.261719 53.261719c-29.367188 0-53.261719-23.894532-53.261719-53.261719zm41.757813 123.941406h13.652344c3.773437 0 6.828124-3.054687 6.828124-6.828125 0-3.773437-3.054687-6.828125-6.828124-6.828125h-13.652344v-13.652343h47.789062c3.769532 0 6.824219-3.050782 6.824219-6.824219 0-3.773438-3.054687-6.828125-6.824219-6.828125h-47.789062v-13.652344h88.746094c3.769531 0 6.828124-3.054688 6.828124-6.828125s-3.058593-6.828125-6.828124-6.828125h-40.191407c17.707031-11.824219 29.453125-31.855469 29.8125-54.613281h104.222657c12.246093 0 22.210937 9.96875 22.210937 22.214843v127.972657h-204.714844c-.027343 0-.054687.007812-.085937.007812zm204.800781 61.4375h-97.476563c-1.074218-7.851562-4.558593-14.929687-9.703124-20.480469h107.179687zm-204.714844-20.480469h42.238281c-5.140624 5.550782-8.628906 12.628907-9.699218 20.480469h-53.105469c.046875-11.296875 9.257813-20.480469 20.566406-20.480469zm69.886719 49.6875c-13.277344 0-24.085938-10.804687-24.085938-24.085937 0-13.277344 10.808594-24.085937 24.085938-24.085937 13.28125 0 24.085938 10.808593 24.085938 24.085937 0 13.28125-10.804688 24.085937-24.085938 24.085937zm204.800781 0c-13.277343 0-24.085937-10.804687-24.085937-24.085937 0-13.277344 10.808594-24.085937 24.085937-24.085937 13.28125 0 24.085938 10.808593 24.085938 24.085937 0 13.28125-10.804688 24.085937-24.085938 24.085937zm52.90625-29.207031h-15.554687c-2.511719-18.386719-18.285156-32.617187-37.351563-32.617187-19.066406 0-34.835937 14.230468-37.351562 32.617187h-18.96875v-116.050781h56.300781c13.121094 0 25.1875 6.472656 32.273438 17.316406l20.652343 31.609375zm0 0"></path>
    <path d="m374.6875 257.453125c0 6.167969-5 11.167969-11.167969 11.167969s-11.167969-5-11.167969-11.167969 5-11.167969 11.167969-11.167969 11.167969 5 11.167969 11.167969zm0 0"></path>
    <path d="m169.886719 257.453125c0 6.167969-5 11.167969-11.167969 11.167969-6.164062 0-11.164062-5-11.164062-11.167969s5-11.167969 11.164062-11.167969c6.167969 0 11.167969 5 11.167969 11.167969zm0 0"></path>
    <path d="m109.226562 66.953125v-29.867187c0-3.773438-3.054687-6.824219-6.828124-6.824219-3.769532 0-6.824219 3.050781-6.824219 6.824219v27.640624l-13.933594 19.113282c-2.222656 3.046875-1.554687 7.3125 1.492187 9.53125 1.21875.890625 2.625 1.316406 4.019532 1.316406 2.105468 0 4.183594-.972656 5.519531-2.808594l15.246094-20.90625c.847656-1.164062 1.308593-2.570312 1.308593-4.019531zm0 0"></path>
    <path d="m361.21875 143.105469h-13.058594c-3.773437 0-6.828125 3.054687-6.828125 6.828125v47.785156c0 3.773438 3.054688 6.828125 6.828125 6.828125h45.945313c4.28125 0 8.113281-2.214844 10.261719-5.914063 2.148437-3.699218 2.152343-8.128906.035156-11.820312l-15.941406-27.902344c-5.566407-9.742187-16.007813-15.804687-27.242188-15.804687zm-6.230469 47.789062v-34.132812h6.230469c6.347656 0 12.242188 3.417969 15.386719 8.925781l14.402343 25.207031zm0 0"></path>
  </symbol>
  <symbol id="money-back-guarantee" enable-background="new 0 0 510.699 510.699" xmlns="http://www.w3.org/2000/svg" viewBox="0 0 510.699 510.699">
    <g>
      <path d="m81.983 397.158c-4.142 0-7.5-3.358-7.5-7.5 0-4.142 3.358-7.5 7.5-7.5 4.142 0 7.5 3.358 7.5 7.5 0 4.142-3.358 7.5-7.5 7.5z"></path>
      <g>
        <path d="m485.793 269.263c-7.191-12.468-24.385-17.643-37.518-10.067l-95.87 55.361c-3.138-11.716-13.847-20.366-26.538-20.366h-45.771c-18.475-7.906-38.492-15.47-58.809-15.47-39.382 0-72.864 27.499-92.543 59.701l-14.748-14.748c-2.93-2.928-7.678-2.928-10.607 0l-15.995 15.995-8.213-8.213c-3.536-2.928-7.072-2.928-10.607 0l-44.791 44.792c-2.929 2.93-2.929 7.678 0 10.607l121.647 121.648c3.536 2.928 7.072 2.928 10.607 0l66.09-66.091c2.929-3.536 2.93-7.071.001-10.607l-14.654-14.654h35.524c4.143 0 7.5-3.357 7.5-7.5s-3.357-7.5-7.5-7.5h-50.523l-52.775-52.774c8.073-14.068 35.819-55.656 81.587-55.656 20.475 0 38.455 15.47 57.409 15.47h47.171c15.453 0 16.772 24.933-.001 24.933h-90.56c-4.143 0-7.5 3.357-7.5 7.5s3.357 7.5 7.5 7.5h90.56c11.082 0 20.815-6.497 25.146-16.443l104.762-60.494c6.943-3.179 12.62-1.651 17.032 4.584 3.789 6.536-.417 13.67-5.428 17.601l-126.425 98.814c-7.386 5.781-16.625 8.965-26.018 8.965h-39.26c-4.143 0-7.5 3.357-7.5 7.5s3.357 7.5 7.5 7.5h39.26c12.729 0 25.252-4.316 35.259-12.15l126.043-98.516c12.944-9.853 16.129-22.26 9.556-37.222zm-335.06 223.33-111.041-111.041 34.185-34.186 111.041 111.042zm44.792-44.793-97.525-97.524 10.692-10.692 97.525 97.524z"></path>
        <path d="m53.526 232.44h69.07c4.143 0 7.5-3.357 7.5-7.5s-3.357-7.5-7.5-7.5h-61.57v-202.44h388.801v84.83c0 4.143 3.357 7.5 7.5 7.5s7.5-3.357 7.5-7.5v-92.33c0-4.143-3.357-7.5-7.5-7.5h-403.801c-4.143 0-7.5 3.357-7.5 7.5v217.44c0 4.143 3.358 7.5 7.5 7.5z"></path>
        <path d="m155.287 232.44h302.04c4.143 0 7.5-3.357 7.5-7.5v-92.43c0-4.143-3.357-7.5-7.5-7.5s-7.5 3.357-7.5 7.5v84.93h-294.54c-4.143 0-7.5 3.357-7.5 7.5s3.357 7.5 7.5 7.5z"></path>
        <path d="m395.207 201.379c1.989 0 3.896-.79 5.304-2.196l31.063-31.063c1.406-1.407 2.196-3.314 2.196-5.304v-93.186c0-1.984-.787-3.889-2.188-5.294l-31.063-31.168c-1.407-1.412-3.319-2.206-5.313-2.206h-279.56c-1.993 0-3.905.794-5.313 2.206l-31.062 31.168c-1.4 1.405-2.188 3.31-2.188 5.294v93.187c0 1.989.79 3.896 2.196 5.304l31.063 31.063c1.407 1.406 3.314 2.196 5.304 2.196h279.561zm-194.404-85.209c0-38.713 24.504-70.208 54.624-70.208s54.624 31.495 54.624 70.208-24.504 70.209-54.624 70.209-54.624-31.496-54.624-70.209zm191.29-70.208 26.677 26.767v86.981l-26.67 26.669h-97.282c18.243-15.379 30.232-41.108 30.232-70.209s-11.989-54.829-30.232-70.208zm-273.34 140.417-26.669-26.669v-86.981l26.677-26.767h97.274c-18.243 15.379-30.232 41.107-30.232 70.208s11.989 54.83 30.232 70.209z"></path>
        <path d="m138.943 93.191c-12.699 0-23.031 10.332-23.031 23.031s10.332 23.031 23.031 23.031 23.031-10.332 23.031-23.031-10.332-23.031-23.031-23.031zm0 31.063c-4.429 0-8.031-3.603-8.031-8.031s3.603-8.031 8.031-8.031 8.031 3.603 8.031 8.031-3.602 8.031-8.031 8.031z"></path>
        <path d="m371.91 139.254c12.699 0 23.031-10.332 23.031-23.031s-10.332-23.031-23.031-23.031-23.031 10.332-23.031 23.031 10.332 23.031 23.031 23.031zm0-31.063c4.429 0 8.031 3.603 8.031 8.031s-3.603 8.031-8.031 8.031-8.031-3.603-8.031-8.031 3.602-8.031 8.031-8.031z"></path>
        <path d="m223.303 107.839h64.248c3.033 0 5.769-1.827 6.929-4.63 1.161-2.803.52-6.028-1.625-8.173l-15.53-15.531c-2.929-2.929-7.678-2.93-10.606-.001-2.93 2.929-2.93 7.678-.001 10.606l2.729 2.729h-46.143c-4.143 0-7.5 3.357-7.5 7.5s3.356 7.5 7.499 7.5z"></path>
        <path d="m295.051 131.401c0-4.143-3.357-7.5-7.5-7.5h-64.249c-3.033 0-5.769 1.827-6.929 4.63-1.161 2.803-.52 6.028 1.625 8.174l15.531 15.531c3.536 2.928 7.072 2.928 10.607 0 2.929-2.93 2.929-7.678 0-10.607l-2.729-2.728h46.143c4.143 0 7.501-3.357 7.501-7.5z"></path>
      </g>
    </g>
  </symbol>
  <symbol xmlns="http://www.w3.org/2000/svg" xmlns:xlink="http://www.w3.org/1999/xlink" version="1.1" id="save-time" x="0px" y="0px" xml:space="preserve" viewBox="0 0 512 512">
    <g id="XMLID_614_">
      <g id="XMLID_592_">
        <g id="XMLID_593_">
          <path id="XMLID_611_" d="M256,284.09c78.299,0,142-63.701,142-142s-63.701-142-142-142s-142,63.701-142,142     S177.701,284.09,256,284.09z M256,20.09c67.271,0,122,54.729,122,122s-54.729,122-122,122s-122-54.729-122-122     S188.729,20.09,256,20.09z"></path>
          <path id="XMLID_610_" d="M345.523,152.202h8.493c5.522,0,10-4.477,10-10s-4.478-10-10-10h-8.493c-5.522,0-10,4.477-10,10     S340.001,152.202,345.523,152.202z"></path>
          <path id="XMLID_609_" d="M176.477,141.978c0-5.523-4.478-10-10-10h-8.493c-5.522,0-10,4.477-10,10s4.478,10,10,10h8.493     C171.999,151.978,176.477,147.501,176.477,141.978z"></path>
          <path id="XMLID_608_" d="M256.112,62.566c5.522,0,10-4.477,10-10v-8.493c0-5.523-4.478-10-10-10s-10,4.477-10,10v8.493     C246.112,58.089,250.59,62.566,256.112,62.566z"></path>
          <path id="XMLID_607_" d="M255.888,221.613c-5.522,0-10,4.477-10,10v8.493c0,5.523,4.478,10,10,10s10-4.477,10-10v-8.493     C265.888,226.09,261.41,221.613,255.888,221.613z"></path>
          <path id="XMLID_606_" d="M248.832,149.064l0.112,0.112c1.951,1.943,4.503,2.914,7.056,2.914c2.56,0,5.119-0.977,7.071-2.929     L332.2,80.032c3.905-3.905,3.905-10.237,0-14.143c-3.906-3.905-10.236-3.904-14.143,0L256,127.948l-36.052-36.052     c-3.905-3.905-10.235-3.905-14.143,0c-3.905,3.905-3.905,10.237,0,14.142L248.832,149.064z"></path>
          <path id="XMLID_604_" d="M473.325,282.101c-14.469-11.636-35.281-10.51-48.41,2.62l-70.445,70.445     c-1.76-13.919-11.859-25.527-25.761-29.011l-94.569-23.693c-19.678-4.931-40.444-2.533-58.479,6.748l-57.978,29.837l-5.465-9.465     c-2.118-3.669-5.538-6.293-9.63-7.39c-4.087-1.093-8.362-0.532-12.031,1.585l-57.343,33.106     c-7.571,4.371-10.175,14.088-5.804,21.66l72.418,125.431c2.118,3.669,5.537,6.293,9.628,7.39     c1.366,0.366,2.753,0.547,4.131,0.547c2.747,0,5.459-0.721,7.902-2.131l57.341-33.106c7.572-4.371,10.177-14.088,5.805-21.661     l-56.941-98.625l57.117-29.395c13.715-7.058,29.506-8.88,44.467-5.131l94.569,23.693c6.416,1.607,10.896,7.35,10.896,13.963     c0,7.937-6.457,14.394-14.395,14.394h-10.807h-63.522c-5.522,0-10,4.478-10,10s4.478,10,10,10h63.522h10.807h8.608     c9.706,0,18.831-3.779,25.694-10.643l84.405-84.405c5.893-5.895,15.238-6.401,21.734-1.177c3.655,2.938,5.808,7.137,6.061,11.819     c0.254,4.683-1.433,9.088-4.749,12.403l-88.95,88.95c-12.129,12.13-28.256,18.81-45.409,18.81h-81.597c-5.522,0-10,4.478-10,10     s4.478,10,10,10h81.597c22.495,0,43.645-8.761,59.552-24.667l88.95-88.95c7.278-7.279,11.134-17.349,10.577-27.627     C486.267,298.146,481.347,288.551,473.325,282.101z M149.253,470.655l-24.859-43.057c-2.762-4.781-8.878-6.422-13.66-3.66     c-4.783,2.762-6.422,8.877-3.66,13.66l24.859,43.058l-16.854,9.731L46.803,372.132l50.165-28.963l68.274,118.254L149.253,470.655     z"></path>
          <path id="XMLID_603_" d="M462,33.901c5.522,0,10-4.477,10-10V10.09c0-5.523-4.478-10-10-10s-10,4.477-10,10v13.811     C452,29.424,456.478,33.901,462,33.901z"></path>
          <path id="XMLID_602_" d="M462,100.09c5.522,0,10-4.477,10-10V76.279c0-5.523-4.478-10-10-10s-10,4.477-10,10V90.09     C452,95.613,456.478,100.09,462,100.09z"></path>
          <path id="XMLID_601_" d="M502,40.09h-13.812c-5.522,0-10,4.477-10,10s4.478,10,10,10H502c5.522,0,10-4.477,10-10     S507.522,40.09,502,40.09z"></path>
          <path id="XMLID_600_" d="M422,60.09h13.812c5.522,0,10-4.477,10-10s-4.478-10-10-10H422c-5.522,0-10,4.477-10,10     S416.478,60.09,422,60.09z"></path>
          <path id="XMLID_599_" d="M50,239.901c5.522,0,10-4.477,10-10V216.09c0-5.523-4.478-10-10-10s-10,4.477-10,10v13.811     C40,235.424,44.478,239.901,50,239.901z"></path>
          <path id="XMLID_598_" d="M50,306.09c5.522,0,10-4.478,10-10v-13.812c0-5.522-4.478-10-10-10s-10,4.478-10,10v13.812     C40,301.612,44.478,306.09,50,306.09z"></path>
          <path id="XMLID_597_" d="M76.188,266.09H90c5.522,0,10-4.478,10-10c0-5.523-4.478-10-10-10H76.188c-5.522,0-10,4.477-10,10     C66.188,261.612,70.666,266.09,76.188,266.09z"></path>
          <path id="XMLID_596_" d="M33.812,256.09c0-5.523-4.478-10-10-10H10c-5.522,0-10,4.477-10,10c0,5.522,4.478,10,10,10h13.812     C29.334,266.09,33.812,261.612,33.812,256.09z"></path>
          <path id="XMLID_595_" d="M206.149,429.667c-2.64,0-5.21,1.07-7.069,2.93c-1.87,1.86-2.931,4.44-2.931,7.07s1.061,5.21,2.931,7.07     c1.859,1.859,4.439,2.93,7.069,2.93c2.631,0,5.21-1.07,7.07-2.93c1.86-1.86,2.93-4.44,2.93-7.07s-1.069-5.21-2.93-7.07     C211.359,430.737,208.78,429.667,206.149,429.667z"></path>
          <path id="XMLID_594_" d="M88.66,390.887c-1.86,1.86-2.931,4.44-2.931,7.07s1.07,5.21,2.931,7.07     c1.859,1.859,4.439,2.93,7.069,2.93c2.641,0,5.21-1.07,7.07-2.93c1.87-1.86,2.93-4.44,2.93-7.07s-1.06-5.21-2.93-7.07     c-1.86-1.859-4.43-2.93-7.07-2.93C93.1,387.957,90.52,389.027,88.66,390.887z"></path>
        </g>
      </g>
    </g>
  </symbol>
  <symbol id="delivery-truck" enable-background="new 0 0 512 512" xmlns="http://www.w3.org/2000/svg" viewBox="0 0 512 512">
    <g>
      <path d="m504.912 260.575-16.904-34.652c-1.814-3.721-6.302-5.269-10.028-3.453-3.723 1.816-5.269 6.306-3.452 10.029l16.903 34.651c.35.719.671 1.452.989 2.186h-103.574c-7.354 0-13.338-5.983-13.338-13.338v-99.818h53.456c5.063 0 9.769 2.94 11.987 7.491l18.193 37.296c1.816 3.722 6.304 5.27 10.029 3.453 3.723-1.816 5.269-6.306 3.453-10.029l-18.193-37.295c-4.716-9.668-14.713-15.915-25.47-15.915h-97.843c-9.649 0-17.5 7.851-17.5 17.5v78.357h-15.659v-155.458c0-9.649-7.851-17.5-17.5-17.5h-232.301c-9.649 0-17.5 7.851-17.5 17.5v55.209c0 4.142 3.358 7.5 7.5 7.5s7.5-3.358 7.5-7.5v-55.209c0-1.378 1.122-2.5 2.5-2.5h81.55v32.612c0 5.79 4.71 10.5 10.5 10.5h48.202c5.79 0 10.5-4.71 10.5-10.5v-32.612h81.55c1.379 0 2.5 1.122 2.5 2.5v155.457h-84.05v-22.599c0-5.79-4.71-10.5-10.5-10.5h-48.202c-5.79 0-10.5 4.71-10.5 10.5v22.599h-84.05v-65.248c0-4.142-3.358-7.5-7.5-7.5s-7.5 3.358-7.5 7.5v65.248h-13.16c-9.649 0-17.5 7.851-17.5 17.5v112.948c0 15.626 12.712 28.338 28.338 28.338h19.037c3.702 29.332 28.788 52.097 59.108 52.097s55.406-22.765 59.108-52.097h155.529 24.246c3.702 29.332 28.788 52.097 59.108 52.097 4.83 0 9.638-.581 14.29-1.726 4.022-.991 6.479-5.054 5.489-9.076s-5.058-6.479-9.075-5.49c-3.48.857-7.081 1.292-10.704 1.292-24.591 0-44.597-20.006-44.597-44.597 0-24.59 20.006-44.596 44.597-44.596s44.597 20.006 44.597 44.596c0 8.891-2.606 17.474-7.539 24.821-2.309 3.439-1.392 8.099 2.048 10.407s8.099 1.392 10.407-2.047c5.196-7.741 8.453-16.505 9.606-25.681h20.068c15.626 0 28.339-12.712 28.339-28.338v-76.213c0-10.576-2.451-21.191-7.088-30.697zm-321.001-153.383h-39.202v-28.112h39.202zm313.089 224.661h-20.01c-1.379 0-2.5-1.122-2.5-2.5v-11.258c0-1.378 1.121-2.5 2.5-2.5h20.01zm-352.291-112.915h39.202v18.099h-39.202zm-129.709 96.657h20.009c1.378 0 2.5 1.122 2.5 2.5v11.258c0 1.378-1.122 2.5-2.5 2.5h-20.009zm0 51.89v-20.632h20.009c9.649 0 17.5-7.851 17.5-17.5v-11.258c0-9.649-7.851-17.5-17.5-17.5h-20.009v-16.258h218.191c4.142 0 7.5-3.358 7.5-7.5s-3.358-7.5-7.5-7.5h-218.191v-14.8c0-1.378 1.122-2.5 2.5-2.5h20.408c.084.003.167.013.252.013s.167-.01.252-.013h98.547c.084.003.167.013.252.013s.167-.01.252-.013h53.698c.084.003.167.013.252.013s.167-.01.252-.013h98.547c.084.003.167.013.252.013s.167-.01.252-.013h22.908v17.3h-45.429c-4.143 0-7.5 3.358-7.5 7.5s3.357 7.5 7.5 7.5h45.429v96.486h-148.033c-3.702-29.331-28.788-52.096-59.108-52.096s-55.406 22.765-59.108 52.096h-19.037c-7.355 0-13.338-5.983-13.338-13.338zm91.483 65.435c-24.591 0-44.597-20.006-44.597-44.597 0-24.59 20.006-44.596 44.597-44.596 24.59 0 44.596 20.006 44.596 44.596.001 24.591-20.005 44.597-44.596 44.597zm377.178-52.097h-20.078c-3.702-29.331-28.788-52.096-59.108-52.096s-55.406 22.765-59.108 52.096h-16.747v-222.143c0-1.378 1.121-2.5 2.5-2.5h29.388v99.819c0 15.626 12.712 28.338 28.338 28.338h107.694c.295 2.302.46 4.619.46 6.935v9.323h-20.01c-9.649 0-17.5 7.851-17.5 17.5v11.258c0 9.649 7.851 17.5 17.5 17.5h20.01v20.632c0 7.355-5.983 13.338-13.339 13.338z"></path>
      <path d="m404.475 359.985c-15.626 0-28.338 12.712-28.338 28.338s12.712 28.339 28.338 28.339 28.339-12.713 28.339-28.339-12.713-28.338-28.339-28.338zm0 41.677c-7.354 0-13.338-5.984-13.338-13.339s5.983-13.338 13.338-13.338 13.339 5.983 13.339 13.338-5.984 13.339-13.339 13.339z"></path>
      <path d="m106.483 359.985c-15.626 0-28.339 12.712-28.339 28.338s12.713 28.339 28.339 28.339 28.338-12.713 28.338-28.339-12.712-28.338-28.338-28.338zm0 41.677c-7.355 0-13.339-5.984-13.339-13.339s5.984-13.338 13.339-13.338 13.338 5.983 13.338 13.338-5.983 13.339-13.338 13.339z"></path>
      <path d="m199.88 155.885h55.896c4.143 0 7.5-3.358 7.5-7.5s-3.357-7.5-7.5-7.5h-55.896c-4.142 0-7.5 3.358-7.5 7.5s3.358 7.5 7.5 7.5z"></path>
      <path d="m199.88 185.245h33.312c4.142 0 7.5-3.358 7.5-7.5s-3.358-7.5-7.5-7.5h-33.312c-4.142 0-7.5 3.358-7.5 7.5s3.358 7.5 7.5 7.5z"></path>
      <path d="m162.439 189.197c5.79 0 10.5-4.71 10.5-10.5v-31.264c0-5.79-4.71-10.5-10.5-10.5h-86.594c-5.79 0-10.5 4.71-10.5 10.5v31.264c0 5.79 4.71 10.5 10.5 10.5zm-51.267-15v-22.264h15.828v22.264zm46.767 0h-15.939v-22.264h15.94v22.264zm-77.594-22.264h15.827v22.264h-15.827z"></path>
    </g>
  </symbol>
  <symbol id="shipment" enable-background="new 0 0 509.604 509.604" xmlns="http://www.w3.org/2000/svg" viewBox="0 0 509.604 509.604">
    <g>
      <path d="m151.856 470.677c-7.862.781-15.619-1.443-21.852-6.263l-10.066-7.788c-3.807-2.943-9.121-2.942-12.926 0l-10.067 7.788c-6.322 4.89-14.191 7.102-22.151 6.233-4.123-.45-7.82 2.522-8.271 6.64s2.522 7.821 6.64 8.271c1.688.185 3.371.276 5.047.276 10.085 0 19.844-3.313 27.913-9.555l7.353-5.688 7.352 5.687c9.277 7.177 20.832 10.487 32.514 9.325 4.122-.41 7.131-4.084 6.721-8.206s-4.082-7.135-8.207-6.72z"></path>
      <path d="m293.37 470.677c-7.861.781-15.619-1.443-21.852-6.263l-10.066-7.788c-3.807-2.943-9.121-2.942-12.926 0l-10.067 7.788c-6.322 4.89-14.19 7.102-22.15 6.233-4.124-.45-7.82 2.522-8.271 6.64-.451 4.117 2.521 7.82 6.64 8.271 1.688.185 3.371.276 5.046.276 10.086 0 19.844-3.313 27.913-9.555l7.353-5.688 7.352 5.687c9.277 7.177 20.832 10.487 32.514 9.325 4.122-.41 7.131-4.084 6.721-8.206-.411-4.121-4.077-7.135-8.207-6.72z"></path>
      <path d="m434.883 470.677c-7.86.78-15.619-1.442-21.851-6.264l-10.067-7.787c-3.807-2.943-9.121-2.943-12.926 0l-10.066 7.787c-6.322 4.891-14.192 7.104-22.151 6.233-4.117-.45-7.82 2.522-8.271 6.64-.451 4.117 2.521 7.82 6.64 8.271 1.688.185 3.371.276 5.046.276 10.085 0 19.844-3.313 27.914-9.556l7.352-5.687 7.353 5.687c9.276 7.176 20.821 10.487 32.513 9.325 4.122-.41 7.131-4.084 6.721-8.206s-4.087-7.134-8.207-6.719z"></path>
      <path d="m495.569 377.515 13.632-39.892c.268-.781.403-1.6.403-2.425v-16.724c0-6.368-5.181-11.548-11.548-11.548h-14.184v-49.81c0-11.633-9.465-21.097-21.098-21.097h-20.072l-.958-16.51c-.24-4.135-3.789-7.294-7.922-7.053-4.135.24-7.293 3.787-7.053 7.922l.908 15.641h-51.626l3.637-62.667h44.353l.874 15.064c.239 4.136 3.77 7.303 7.922 7.053 4.135-.24 7.293-3.787 7.053-7.922l-3.388-58.375c-.455-7.842-6.965-13.985-14.82-13.985h-12.317v-29.149h49.692c4.42 0 8.455-2.239 10.794-5.989s2.574-8.359.63-12.326l-6.276-12.818 6.276-12.817c1.944-3.969 1.709-8.577-.63-12.327s-6.374-5.989-10.794-5.989h-50.913c-7.598 0-13.779 6.181-13.779 13.779v77.636h-12.316c-7.855 0-14.365 6.143-14.82 13.985l-6.201 106.848h-25.221c-2.12 0-4.166.322-6.098.906v-84.486c0-8.641-7.03-15.671-15.671-15.671h-34.248v-49.497c0-12.038-9.794-21.832-21.832-21.832h-62.925c-4.143 0-7.5 3.358-7.5 7.5s3.357 7.5 7.5 7.5h62.925c3.768 0 6.832 3.065 6.832 6.832v49.497h-125.124v-49.497c0-3.767 3.065-6.832 6.833-6.832h16.572c4.143 0 7.5-3.358 7.5-7.5s-3.357-7.5-7.5-7.5h-16.572c-12.039 0-21.833 9.794-21.833 21.832v49.497h-34.248c-8.642 0-15.672 7.03-15.672 15.671v154.486h-61.103c-7.522 0-13.643 6.12-13.643 13.642v13.609c0 1.505.247 2.99.733 4.412l13.302 38.926c4.635 13.565 12.392 25.905 22.469 35.995-4.434-.931-8.71-2.828-12.475-5.74l-11.94-9.237c-3.276-2.533-7.985-1.935-10.521 1.343-2.534 3.276-1.933 7.987 1.344 10.521l11.94 9.237c16.473 12.743 39.481 12.743 55.954 0l7.352-5.687 7.353 5.687c8.237 6.373 18.105 9.558 27.977 9.558 9.869-.001 19.741-3.187 27.977-9.557l7.352-5.687 7.353 5.687c16.472 12.743 39.48 12.744 55.954 0l7.352-5.687 7.353 5.687c16.471 12.743 39.48 12.743 55.953 0l7.353-5.688 7.352 5.687c16.473 12.743 39.481 12.744 55.954 0l7.352-5.687 7.353 5.687c16.471 12.743 39.48 12.743 55.953 0l7.352-5.687 7.353 5.687c3.851 2.979 8.061 5.252 12.459 6.838.003.001.006.002.009.003 14.415 5.195 30.867 2.92 43.486-6.841l11.94-9.237c3.276-2.534 3.878-7.245 1.344-10.521-2.537-3.278-7.248-3.876-10.521-1.343l-11.94 9.237c-3.764 2.912-8.041 4.809-12.475 5.74 10.071-10.089 17.827-22.43 22.463-35.995zm-86.204-338.744h46.038l-5.159 10.537c-1.743 3.557-1.743 7.637-.001 11.191l5.16 10.539h-46.038zm-27.171 91.415h39.343l1.634 28.166h-42.612zm-46.388 120.833h126.969c3.362 0 6.098 2.735 6.098 6.097v49.81h-8.54c-3.086 0-5.986 1.202-8.165 3.383l-30.87 30.869c-.455.456-1.06.706-1.703.706h-89.886v-84.767c-.001-3.363 2.735-6.098 6.097-6.098zm-126.078 90.864v-47.504h104.98v47.504zm104.98-62.504h-104.98v-54.261h104.98zm0-126.94v57.679h-104.98v-58.35h104.31c.37.001.67.301.67.671zm-224.29-.67h104.31v58.35h-53.305c-4.143 0-7.5 3.358-7.5 7.5s3.357 7.5 7.5 7.5h53.305v54.261h-104.981v-54.261h19.714c4.143 0 7.5-3.358 7.5-7.5s-3.357-7.5-7.5-7.5h-19.714v-57.679c0-.371.301-.671.671-.671zm-.671 142.61h104.981v47.504h-49.716l-31.573-31.573c-2.181-2.182-5.081-3.384-8.167-3.384h-15.525zm348.162 105.603c-3.806-2.943-9.121-2.942-12.925 0l-10.067 7.788c-11.068 8.563-26.529 8.562-37.598 0l-10.067-7.787c-3.807-2.943-9.121-2.943-12.926 0l-10.066 7.787c-11.068 8.561-26.528 8.563-37.599 0l-11.94-9.237c-2.703-2.091-6.477-2.091-9.178 0l-11.941 9.237c-11.068 8.563-26.529 8.562-37.598 0l-10.067-7.787c-3.805-2.943-9.121-2.943-12.926 0l-10.066 7.787c-11.068 8.563-26.53 8.562-37.599 0l-10.065-7.785c-3.804-2.945-9.119-2.947-12.927-.002l-10.067 7.788c-11.067 8.562-26.528 8.564-37.598 0l-10.067-7.787c-3.805-2.943-9.12-2.944-12.925 0l-10.067 7.788c-1.613 1.248-3.328 2.292-5.101 3.176-13.081-9.507-23.063-22.961-28.299-38.281l-13.23-38.715v-12.026h88.841l31.579 31.579c2.182 2.179 5.081 3.379 8.163 3.379h276.011c4.648 0 9.021-1.811 12.31-5.099l29.859-29.859h32.841v12.026l-11.759 34.413h-39.739c-4.143 0-7.5 3.358-7.5 7.5s3.357 7.5 7.5 7.5h33.675c-5.636 10.862-13.771 20.362-23.704 27.581-1.773-.884-3.488-1.928-5.101-3.176z"></path>
      <path d="m68.978 335.375c-13.422 0-24.341 10.92-24.341 24.342s10.919 24.341 24.341 24.341 24.342-10.919 24.342-24.341-10.92-24.342-24.342-24.342zm0 33.683c-5.15 0-9.341-4.19-9.341-9.341s4.19-9.342 9.341-9.342 9.342 4.191 9.342 9.342-4.191 9.341-9.342 9.341z"></path>
      <path d="m415.82 368.364h-9.668c-4.143 0-7.5 3.358-7.5 7.5s3.357 7.5 7.5 7.5h9.668c4.143 0 7.5-3.358 7.5-7.5s-3.358-7.5-7.5-7.5z"></path>
      <path d="m377.772 368.364h-9.668c-4.143 0-7.5 3.358-7.5 7.5s3.357 7.5 7.5 7.5h9.668c4.143 0 7.5-3.358 7.5-7.5s-3.357-7.5-7.5-7.5z"></path>
      <path d="m339.724 368.364h-9.668c-4.143 0-7.5 3.358-7.5 7.5s3.357 7.5 7.5 7.5h9.668c4.143 0 7.5-3.358 7.5-7.5s-3.357-7.5-7.5-7.5z"></path>
      <path d="m301.677 368.364h-9.668c-4.143 0-7.5 3.358-7.5 7.5s3.357 7.5 7.5 7.5h9.668c4.143 0 7.5-3.358 7.5-7.5s-3.357-7.5-7.5-7.5z"></path>
      <path d="m263.629 368.364h-9.668c-4.143 0-7.5 3.358-7.5 7.5s3.357 7.5 7.5 7.5h9.668c4.143 0 7.5-3.358 7.5-7.5s-3.357-7.5-7.5-7.5z"></path>
      <path d="m225.582 368.364h-9.668c-4.143 0-7.5 3.358-7.5 7.5s3.357 7.5 7.5 7.5h9.668c4.143 0 7.5-3.358 7.5-7.5s-3.358-7.5-7.5-7.5z"></path>
      <path d="m187.534 368.364h-9.668c-4.143 0-7.5 3.358-7.5 7.5s3.357 7.5 7.5 7.5h9.668c4.143 0 7.5-3.358 7.5-7.5s-3.358-7.5-7.5-7.5z"></path>
      <path d="m149.486 368.364h-9.668c-4.143 0-7.5 3.358-7.5 7.5s3.357 7.5 7.5 7.5h9.668c4.143 0 7.5-3.358 7.5-7.5s-3.358-7.5-7.5-7.5z"></path>
      <path d="m357.295 286.554h7.371c4.143 0 7.5-3.358 7.5-7.5s-3.357-7.5-7.5-7.5h-7.371c-4.143 0-7.5 3.358-7.5 7.5s3.358 7.5 7.5 7.5z"></path>
      <path d="m395.035 286.554h7.371c4.143 0 7.5-3.358 7.5-7.5s-3.357-7.5-7.5-7.5h-7.371c-4.143 0-7.5 3.358-7.5 7.5s3.357 7.5 7.5 7.5z"></path>
      <path d="m357.295 318.989h7.371c4.143 0 7.5-3.358 7.5-7.5s-3.357-7.5-7.5-7.5h-7.371c-4.143 0-7.5 3.358-7.5 7.5s3.358 7.5 7.5 7.5z"></path>
      <path d="m395.035 318.989h7.371c4.143 0 7.5-3.358 7.5-7.5s-3.357-7.5-7.5-7.5h-7.371c-4.143 0-7.5 3.358-7.5 7.5s3.357 7.5 7.5 7.5z"></path>
      <path d="m432.774 286.554h7.372c4.143 0 7.5-3.358 7.5-7.5s-3.357-7.5-7.5-7.5h-7.372c-4.143 0-7.5 3.358-7.5 7.5s3.357 7.5 7.5 7.5z"></path>
    </g>
  </symbol>
  <symbol version="1.1" id="cancel" xmlns="http://www.w3.org/2000/svg" xmlns:xlink="http://www.w3.org/1999/xlink" x="0px" y="0px" xml:space="preserve" viewBox="0 0 512.001 512.001">
    <g>
      <g>
        <path d="M284.286,256.002L506.143,34.144c7.811-7.811,7.811-20.475,0-28.285c-7.811-7.81-20.475-7.811-28.285,0L256,227.717
			L34.143,5.859c-7.811-7.811-20.475-7.811-28.285,0c-7.81,7.811-7.811,20.475,0,28.285l221.857,221.857L5.858,477.859
			c-7.811,7.811-7.811,20.475,0,28.285c3.905,3.905,9.024,5.857,14.143,5.857c5.119,0,10.237-1.952,14.143-5.857L256,284.287
			l221.857,221.857c3.905,3.905,9.024,5.857,14.143,5.857s10.237-1.952,14.143-5.857c7.811-7.811,7.811-20.475,0-28.285
			L284.286,256.002z"></path>
      </g>
    </g>
  </symbol>
</svg>




