<svg xmlns="http://www.w3.org/2000/svg" xmlns:xlink="http://www.w3.org/1999/xlink" id="Layer_5" x="0px" y="0px" viewBox="0 0 512 512" style="enable-background:new 0 0 512 512;" xml:space="preserve">
<style type="text/css">
	.st0{fill-rule:evenodd;clip-rule:evenodd;fill:#F70000;}
	.st1{fill-rule:evenodd;clip-rule:evenodd;fill:none;}
	.st2{fill:#F7F6F6;}
	.st3{font-family:'Roboto-Bold';}
	.st4{font-size:362px;}
</style>
<g id="Page-1">
	<g>
		<path id="Shape" d="M-180.6-107.4l-128-56c-2.2-0.9-4.7-0.9-6.8,0l-128,56c-3.1,1.4-5.1,4.4-5.1,7.8v134c0,30.1,14.5,58.4,38.9,76    l88.5,63.8c5.5,4,12.8,4,18.3,0l88.5-63.8c24.4-17.6,38.9-45.9,38.9-76v-134C-175.5-103-177.5-106-180.6-107.4z M-192.6,34.4    c0,24.6-11.9,47.7-31.8,62.2l-87.6,63.2l-87.6-63.2c-20-14.4-31.8-37.5-31.8-62.2V-94l119.5-52.3L-192.6-94V34.4z"></path>
		<path d="M-315.4-126.2l-93.9,41.1c-3.1,1.4-5.1,4.4-5.1,7.8V34.4c0,19.1,9.2,37.1,24.7,48.3l72.7,52.4c3,2.1,7,2.1,10,0l72.7-52.4    c15.5-11.2,24.7-29.2,24.7-48.3V-77.2c0-3.4-2-6.5-5.1-7.8l-93.9-41.1C-310.8-127.1-313.3-127.1-315.4-126.2z M-226.7-71.7V34.4    c0,13.7-6.6,26.5-17.7,34.5l-67.7,48.8l-67.7-48.8c-11.1-8-17.6-20.8-17.7-34.5V-71.7L-312-109L-226.7-71.7z"></path>
		<path d="M-497.3,119.2l-18.5-43.1c-3.9-8.9-12.3-15-22-16.1c-9.7-1-19.1,3.1-24.9,11c-5.7,7.8-6.9,18.2-2.9,27l33.4,73.6    c4.5,10,10.8,19,18.5,26.7l52.6,52.6c-3,3.1-4.6,7.3-4.6,11.6v68.3c0,9.4,7.6,17.1,17.1,17.1h93.9c9.4,0,17.1-7.6,17.1-17.1v-68.3    c0-9.4-7.6-17.1-17.1-17.1v-15.9c0.3-20.2-6.3-39.9-18.7-55.9c-7.3-9.5-17.1-16.8-28.4-20.7c-18-7.6-34.5-18.2-48.9-31.4    C-464,110.6-482.9,109.6-497.3,119.2z M-354.7,330.8h-93.9v-68.3h93.9V330.8z M-386.7,184.4c9.9,13,15.2,28.9,15,45.2v15.9h-70.6    l-59.2-59.2c-6.3-6.3-11.4-13.6-15.1-21.7L-550,91c-1.4-3.1-1.2-6.8,0.7-9.7c1.9-2.9,5.1-4.7,8.5-4.7c4.1,0,7.7,2.4,9.3,6.2    l19.1,44.5c5.1,11.9,12.4,22.7,21.5,31.8l39,39c2.1,2.2,5.3,3.1,8.3,2.3c3-0.8,5.3-3.1,6.1-6.1c0.8-3-0.1-6.2-2.3-8.3l-39-39    c-3.9-3.9-7.4-8.2-10.5-12.8c8.2-6.3,19.7-6.1,27.6,0.5c16,14.6,34.4,26.3,54.4,34.5C-399.1,172.1-391.9,177.4-386.7,184.4z"></path>
		<path d="M-380.3,288.1h-8.5c-4.7,0-8.5,3.8-8.5,8.5s3.8,8.5,8.5,8.5h8.5c4.7,0,8.5-3.8,8.5-8.5S-375.6,288.1-380.3,288.1z"></path>
		<path d="M-91.9,171.6L-58.5,98c4.1-8.9,3.1-19.4-2.7-27.3s-15.4-12.2-25.1-11.1s-18.2,7.4-22,16.4l-18.4,43    c-14.4-9.5-33.4-8.4-46.7,2.6c-14.4,13.2-30.9,23.8-48.9,31.4c-11.3,4-21.2,11.2-28.4,20.7c-12.4,16-19,35.7-18.7,55.9v15.9    c-9.4,0-17.1,7.6-17.1,17.1v68.3c0,9.4,7.6,17.1,17.1,17.1h93.9c9.4,0,17.1-7.6,17.1-17.1v-68.3c0-4.3-1.7-8.5-4.6-11.6l52.6-52.6    C-102.7,190.6-96.4,181.5-91.9,171.6z M-175.5,330.8h-93.9v-68.3h93.9V330.8z M-181.7,245.5h-70.6v-15.9c-0.3-16.3,5-32.3,15-45.2    c5.2-6.9,12.3-12.2,20.5-15.2c20.1-8.2,38.5-19.8,54.5-34.5c8-6.6,19.5-6.8,27.7-0.5c-3.1,4.6-6.6,9-10.6,12.9l-39,39    c-3.2,3.3-3.2,8.7,0.1,12s8.6,3.3,12,0.1l39-39c9.1-9.1,16.5-19.9,21.5-31.8l19.1-44.5c1.6-3.7,5.3-6.1,9.3-6.1    c3.4,0,6.7,1.8,8.5,4.7c1.9,2.9,2.1,6.5,0.7,9.7l-33.4,73.6c-3.7,8.1-8.8,15.5-15.1,21.7L-181.7,245.5z"></path>
		<path d="M-235.2,288.1h-8.5c-4.7,0-8.5,3.8-8.5,8.5s3.8,8.5,8.5,8.5h8.5c4.7,0,8.5-3.8,8.5-8.5S-230.5,288.1-235.2,288.1z"></path>
		<path d="M-358.1,16.8c-3.8-2.8-9.1-2.1-11.9,1.7c-2.8,3.8-2.1,9.1,1.7,11.9l34.1,25.6c1.5,1.1,3.3,1.7,5.1,1.7c0.5,0,1,0,1.4-0.1    c2.3-0.4,4.4-1.7,5.7-3.7l68.3-102.4c1.7-2.5,1.9-5.8,0.6-8.5c-1.4-2.7-4.1-4.5-7.1-4.7c-3-0.2-6,1.2-7.7,3.8L-331.2,37    L-358.1,16.8z"></path>
	</g>
</g>
<path class="st0" d="M17.8,733.7h-256.4V621.2l-232.6,217.3l232.6,217.3V943.4H17.8V733.7z"></path>
<rect x="29.9" y="66.8" class="st1" width="452.3" height="405.8"></rect>
<text transform="matrix(1 0 0 1 48.3099 338.3459)" class="st2 st3 st4">02</text>
</svg>