<svg xmlns="http://www.w3.org/2000/svg" xmlns:xlink="http://www.w3.org/1999/xlink" id="Capa_1" x="0px" y="0px" viewBox="0 0 512 512" style="enable-background:new 0 0 512 512;" xml:space="preserve"><g> <path d="M504.9,260.6L488,225.9c-1.8-3.7-6.3-5.3-10-3.5c-3.7,1.8-5.3,6.3-3.5,10l16.9,34.7c0.4,0.7,0.7,1.5,1,2.2H388.8   c-7.4,0-13.3-6-13.3-13.3v-99.8H429c5.1,0,9.8,2.9,12,7.5l18.2,37.3c1.8,3.7,6.3,5.3,10,3.5c3.7-1.8,5.3-6.3,3.5-10l-18.2-37.3   c-4.7-9.7-14.7-15.9-25.5-15.9h-97.8c-9.6,0-17.5,7.9-17.5,17.5V237H298V81.6c0-9.6-7.9-17.5-17.5-17.5H48.2   c-9.6,0-17.5,7.9-17.5,17.5v55.2c0,4.1,3.4,7.5,7.5,7.5s7.5-3.4,7.5-7.5V81.6c0-1.4,1.1-2.5,2.5-2.5h81.6v32.6   c0,5.8,4.7,10.5,10.5,10.5h48.2c5.8,0,10.5-4.7,10.5-10.5V79.1h81.6c1.4,0,2.5,1.1,2.5,2.5V237h-84.1v-22.6   c0-5.8-4.7-10.5-10.5-10.5h-48.2c-5.8,0-10.5,4.7-10.5,10.5V237H45.7v-65.2c0-4.1-3.4-7.5-7.5-7.5s-7.5,3.4-7.5,7.5V237H17.5   C7.9,237,0,244.9,0,254.5v112.9c0,15.6,12.7,28.3,28.3,28.3h19c3.7,29.3,28.8,52.1,59.1,52.1s55.4-22.8,59.1-52.1h155.5h24.2   c3.7,29.3,28.8,52.1,59.1,52.1c4.8,0,9.6-0.6,14.3-1.7c4-1,6.5-5.1,5.5-9.1s-5.1-6.5-9.1-5.5c-3.5,0.9-7.1,1.3-10.7,1.3   c-24.6,0-44.6-20-44.6-44.6c0-24.6,20-44.6,44.6-44.6s44.6,20,44.6,44.6c0,8.9-2.6,17.5-7.5,24.8c-2.3,3.4-1.4,8.1,2,10.4   s8.1,1.4,10.4-2c5.2-7.7,8.5-16.5,9.6-25.7h20.1c15.6,0,28.3-12.7,28.3-28.3v-76.2C512,280.7,509.5,270.1,504.9,260.6L504.9,260.6z    M183.9,107.2h-39.2V79.1h39.2V107.2z M497,331.9h-20c-1.4,0-2.5-1.1-2.5-2.5v-11.3c0-1.4,1.1-2.5,2.5-2.5h20V331.9z M144.7,218.9   h39.2V237h-39.2V218.9z M15,315.6h20c1.4,0,2.5,1.1,2.5,2.5v11.3c0,1.4-1.1,2.5-2.5,2.5H15L15,315.6z M15,367.5v-20.6h20   c9.6,0,17.5-7.9,17.5-17.5v-11.3c0-9.6-7.9-17.5-17.5-17.5H15v-16.3h218.2c4.1,0,7.5-3.4,7.5-7.5s-3.4-7.5-7.5-7.5H15v-14.8   c0-1.4,1.1-2.5,2.5-2.5h20.4c0.1,0,0.2,0,0.3,0s0.2,0,0.3,0H137c0.1,0,0.2,0,0.3,0s0.2,0,0.3,0h53.7c0.1,0,0.2,0,0.3,0s0.2,0,0.3,0   h98.5c0.1,0,0.2,0,0.3,0s0.2,0,0.3,0h22.9v17.3h-45.4c-4.1,0-7.5,3.4-7.5,7.5s3.4,7.5,7.5,7.5h45.4v96.5h-148   c-3.7-29.3-28.8-52.1-59.1-52.1s-55.4,22.8-59.1,52.1h-19C21,380.8,15,374.8,15,367.5L15,367.5z M106.5,432.9   c-24.6,0-44.6-20-44.6-44.6c0-24.6,20-44.6,44.6-44.6c24.6,0,44.6,20,44.6,44.6C151.1,412.9,131.1,432.9,106.5,432.9z M483.7,380.8   h-20.1c-3.7-29.3-28.8-52.1-59.1-52.1s-55.4,22.8-59.1,52.1h-16.7V158.7c0-1.4,1.1-2.5,2.5-2.5h29.4V256   c0,15.6,12.7,28.3,28.3,28.3h107.7c0.3,2.3,0.5,4.6,0.5,6.9v9.3h-20c-9.6,0-17.5,7.9-17.5,17.5v11.3c0,9.6,7.9,17.5,17.5,17.5h20   v20.6C497,374.8,491,380.8,483.7,380.8z"></path> <path d="M404.5,360c-15.6,0-28.3,12.7-28.3,28.3s12.7,28.3,28.3,28.3s28.3-12.7,28.3-28.3S420.1,360,404.5,360z M404.5,401.7   c-7.4,0-13.3-6-13.3-13.3s6-13.3,13.3-13.3s13.3,6,13.3,13.3S411.8,401.7,404.5,401.7z"></path> <path d="M106.5,360c-15.6,0-28.3,12.7-28.3,28.3s12.7,28.3,28.3,28.3s28.3-12.7,28.3-28.3S122.1,360,106.5,360z M106.5,401.7   c-7.4,0-13.3-6-13.3-13.3s6-13.3,13.3-13.3s13.3,6,13.3,13.3S113.8,401.7,106.5,401.7z"></path> <path d="M199.9,155.9h55.9c4.1,0,7.5-3.4,7.5-7.5s-3.4-7.5-7.5-7.5h-55.9c-4.1,0-7.5,3.4-7.5,7.5S195.7,155.9,199.9,155.9z"></path> <path d="M199.9,185.2h33.3c4.1,0,7.5-3.4,7.5-7.5s-3.4-7.5-7.5-7.5h-33.3c-4.1,0-7.5,3.4-7.5,7.5S195.7,185.2,199.9,185.2z"></path> <path d="M162.4,189.2c5.8,0,10.5-4.7,10.5-10.5v-31.3c0-5.8-4.7-10.5-10.5-10.5H75.8c-5.8,0-10.5,4.7-10.5,10.5v31.3   c0,5.8,4.7,10.5,10.5,10.5L162.4,189.2z M111.2,174.2v-22.3H127v22.3L111.2,174.2z M157.9,174.2H142v-22.3h15.9L157.9,174.2   L157.9,174.2z M80.3,151.9h15.8v22.3H80.3L80.3,151.9z"></path></g></svg>