<svg id="Layer_5" enable-background="new 0 0 64 64" height="512" viewBox="0 0 64 64" width="512" xmlns="http://www.w3.org/2000/svg"><g><path d="m41.74 45.405-4.965-1.242-.476-1.428c1.388-.889 2.484-2.191 3.112-3.735h.589c2.206 0 4-1.794 4-4 0-.855-.275-1.645-.734-2.296l.01-.021c.474-.948.724-2.007.724-3.065 0-2.612-1.452-4.962-3.789-6.131l-.222-.111c-.061-2.422-2.04-4.376-4.476-4.376h-6.513c-3.717 0-6.766 2.911-6.987 6.573l-.195.195c-1.172 1.172-1.818 2.73-1.818 4.387 0 .669.107 1.329.318 1.962l.273.818c-.367.605-.591 1.307-.591 2.065 0 2.206 1.794 4 4 4h.589c.628 1.544 1.724 2.846 3.112 3.735l-.476 1.428-4.965 1.242c-1.836.458-3.472 1.544-4.606 3.058-1.067 1.421-1.654 3.182-1.654 4.958v9.579h32v-9.579c0-1.776-.587-3.537-1.653-4.957-1.135-1.515-2.771-2.601-4.607-3.059zm-12.802 2.805-.612 3.061-2.129-4.789 1.362-.34zm1.882.79h2.361l1.087 5.435-2.268 5.102-2.268-5.102zm4.854 2.271-.612-3.061 1.379-2.069 1.362.34zm4.326-14.271h-.069c.041-.328.069-.661.069-1v-3c1.103 0 2 .897 2 2s-.897 2-2 2zm-16.769-9.817.769-.769v-.414c0-2.757 2.243-5 5-5h6.513c1.371 0 2.487 1.116 2.487 2.487 0 1.072-.684 2.02-1.699 2.358l-.616.205.631 1.898.617-.206c1.184-.395 2.111-1.25 2.624-2.325 1.51.865 2.443 2.444 2.443 4.2 0 .599-.118 1.197-.335 1.756-.509-.233-1.069-.373-1.665-.373h-.184c-.414-1.161-1.514-2-2.816-2h-10c-1.302 0-2.402.839-2.816 2h-.184c-.649 0-1.253.17-1.795.445-.134-.417-.205-.85-.205-1.29 0-1.123.438-2.178 1.231-2.972zm.769 9.817c-1.103 0-2-.897-2-2s.897-2 2-2v3c0 .339.028.672.069 1zm2-1v-4c0-.552.448-1 1-1h10c.552 0 1 .448 1 1v4c0 3.309-2.691 6-6 6s-6-2.691-6-6zm6 8c.866 0 1.698-.143 2.48-.398l.417 1.251-1.432 2.147h-2.93l-1.432-2.148.417-1.251c.782.256 1.614.399 2.48.399zm-14 9.421c0-1.347.445-2.681 1.253-3.758.86-1.147 2.101-1.971 3.491-2.318l1.483-.371 6.234 14.026h-6.461v-5.343c0-1.336-.521-2.592-1.465-3.536l-.828-.828-1.414 1.414.828.828c.567.567.879 1.32.879 2.122v5.343h-4zm28 7.579h-4v-5.343c0-.802.313-1.556.879-2.122l.828-.828-1.414-1.414-.828.828c-.944.944-1.465 2.2-1.465 3.536v5.343h-6.461l6.234-14.026 1.483.371c1.391.348 2.631 1.171 3.491 2.319.808 1.076 1.253 2.41 1.253 3.757z"/><path d="m51 25c6.617 0 12-5.383 12-12s-5.383-12-12-12-12 5.383-12 12 5.383 12 12 12zm-6.785-4.675c.465-1.903 1.679-3.468 3.298-4.397l3.487 3.486 3.487-3.487c1.619.93 2.834 2.494 3.298 4.397-1.785 1.655-4.165 2.676-6.785 2.676s-5-1.021-6.785-2.675zm3.785-10.325c0-1.654 1.346-3 3-3s3 1.346 3 3-1.346 3-3 3-3-1.346-3-3zm3 5c.491 0 .97.056 1.434.152l-1.434 1.434-1.434-1.434c.464-.096.943-.152 1.434-.152zm0-12c5.514 0 10 4.486 10 10 0 2.057-.626 3.97-1.695 5.562-.923-2.249-2.708-4.005-4.925-4.901.989-.914 1.62-2.211 1.62-3.661 0-2.757-2.243-5-5-5s-5 2.243-5 5c0 1.45.631 2.747 1.62 3.661-2.218.896-4.002 2.651-4.925 4.901-1.069-1.592-1.695-3.505-1.695-5.562 0-5.514 4.486-10 10-10z"/><path d="m13 25c6.617 0 12-5.383 12-12s-5.383-12-12-12-12 5.383-12 12 5.383 12 12 12zm-6.785-4.675c.432-1.77 1.516-3.245 2.969-4.19.492 1.65 2.007 2.865 3.816 2.865s3.324-1.215 3.816-2.866c1.453.946 2.536 2.42 2.969 4.19-1.785 1.655-4.165 2.676-6.785 2.676s-5-1.021-6.785-2.675zm3.785-10.325c0-1.654 1.346-3 3-3s3 1.346 3 3-1.346 3-3 3-3-1.346-3-3zm4.971 5.284c-.139.968-.966 1.716-1.971 1.716s-1.832-.748-1.971-1.716c.627-.183 1.288-.284 1.971-.284s1.344.101 1.971.284zm-1.971-12.284c5.514 0 10 4.486 10 10 0 2.057-.626 3.97-1.695 5.562-.923-2.249-2.708-4.005-4.925-4.901.989-.914 1.62-2.211 1.62-3.661 0-2.757-2.243-5-5-5s-5 2.243-5 5c0 1.45.631 2.747 1.62 3.661-2.218.896-4.002 2.651-4.925 4.901-1.069-1.592-1.695-3.505-1.695-5.562 0-5.514 4.486-10 10-10z"/><path d="m50 27h2v2h-2z"/><path d="m50 38h-5v2h7v-9h-2z"/><path d="m58 55v-13h-13v2h11v11z"/><path d="m57 57c-1.654 0-3 1.346-3 3s1.346 3 3 3 3-1.346 3-3-1.346-3-3-3zm0 4c-.552 0-1-.448-1-1s.448-1 1-1 1 .448 1 1-.448 1-1 1z"/><path d="m12 27h2v2h-2z"/><path d="m19 38h-5v-7h-2v9h7z"/><path d="m6 55h2v-11h11v-2h-13z"/><path d="m7 57c-1.654 0-3 1.346-3 3s1.346 3 3 3 3-1.346 3-3-1.346-3-3-3zm0 4c-.552 0-1-.448-1-1s.448-1 1-1 1 .448 1 1-.448 1-1 1z"/></g></svg>