<svg xmlns="http://www.w3.org/2000/svg" xmlns:xlink="http://www.w3.org/1999/xlink" id="Layer_1" x="0px" y="0px" viewBox="0 0 228.6 16" style="enable-background:new 0 0 228.6 16;" xml:space="preserve"><style type="text/css">	.st0{fill:#403F49;}	.st1{fill:#EBEBEB;}</style><g>	<rect class="st0" width="234.2" height="16"></rect></g><g>	<g>		<path class="st1" d="M146.8,9h-13V7h13V9z M120.8,9h-13V7h13V9z M94.8,9h-13V7h13V9z M68.8,9h-13V7h13V9z M42.8,9h-13V7h13V9z     M16.8,9h-13V7h13V9z"></path>	</g>	<g>		<path class="st1" d="M224.8,9h-13V7h13V9z M198.8,9h-13V7h13V9z M172.8,9h-13V7h13V9z M146.8,9h-13V7h13V9z"></path>	</g></g></svg>