<svg id="Layer_1" enable-background="new 0 0 512 512" height="512" viewBox="0 0 512 512" width="512" xmlns="http://www.w3.org/2000/svg"><g><path d="m181.827 193.317h148.346v199.538h-148.346z" fill="#e82a40"/><path d="m299.268 193.317h30.905v199.538h-30.905z" fill="#d6243a"/><path d="m123.107 373.678h265.787v117.48h-265.787z" fill="#e82a40"/><path d="m357.988 373.678h30.905v117.48h-30.905z" fill="#d6243a"/><path d="m496.547 512h-481.094c-8.535 0-15.453-6.918-15.453-15.453 0-8.534 6.918-15.453 15.453-15.453h481.095c8.534 0 15.453 6.918 15.453 15.453-.001 8.535-6.919 15.453-15.454 15.453z" fill="#ca6633"/><path d="m496.547 481.095h-30.905c8.534 0 15.453 6.919 15.453 15.453s-6.918 15.453-15.453 15.453h30.905c8.534 0 15.453-6.919 15.453-15.453 0-8.535-6.918-15.453-15.453-15.453z" fill="#ae5121"/><path d="m302.358 202.431h-92.716l37.783-164.829h17.15z" fill="#70d7e5"/><path d="m264.575 37.602h-17.15l24.028 164.829h30.905z" fill="#42c7da"/><circle cx="256" cy="266.194" fill="#435b67" r="40.177"/><path d="m212.732 383.742h-30.905v-34.175c0-.552.146-1.092.419-1.55l13.014-21.781c.967-1.619 3.072-1.619 4.039 0l13.014 21.781c.273.457.419.997.419 1.55z" fill="#efefef"/><path d="m154.012 383.742h-30.905v-34.175c0-.552.146-1.092.419-1.55l13.014-21.781c.967-1.619 3.072-1.619 4.039 0l13.014 21.781c.273.457.419.997.419 1.55z" fill="#efefef"/><path d="m271.453 383.742h-30.905v-34.175c0-.552.146-1.092.419-1.55l13.014-21.781c.967-1.619 3.072-1.619 4.039 0l13.014 21.781c.273.457.419.997.419 1.55z" fill="#efefef"/><path d="m154.012 352.837h27.815v30.905h-27.815z" fill="#435b67"/><path d="m212.732 352.837h27.815v30.905h-27.815z" fill="#435b67"/><path d="m330.173 383.742h-30.905v-34.175c0-.552.146-1.092.419-1.55l13.014-21.781c.967-1.619 3.072-1.619 4.039 0l13.014 21.781c.273.457.419.997.419 1.55z" fill="#efefef"/><path d="m271.453 352.837h27.815v30.905h-27.815z" fill="#435b67"/><path d="m388.893 383.742h-30.905v-34.175c0-.552.146-1.092.419-1.55l13.014-21.781c.967-1.619 3.072-1.619 4.039 0l13.014 21.781c.273.457.419.997.419 1.55z" fill="#dcdcdc"/><path d="m330.173 352.837h27.815v30.905h-27.815z" fill="#435b67"/><path d="m256 218.517c-26.289 0-47.677 21.388-47.677 47.677s21.388 47.677 47.677 47.677 47.677-21.388 47.677-47.677-21.388-47.677-47.677-47.677zm0 80.354c-18.018 0-32.677-14.659-32.677-32.677s14.659-32.677 32.677-32.677 32.677 14.659 32.677 32.677-14.659 32.677-32.677 32.677z" fill="#fece3f"/><path d="m388.893 445.522h-265.786l-5.56-22.239c-.316-1.262.639-2.485 1.94-2.485h273.026c1.301 0 2.256 1.223 1.94 2.485z" fill="#efefef"/><path d="m364.169 420.798-6.181 24.724h30.905l5.56-22.239c.316-1.262-.639-2.485-1.94-2.485z" fill="#dcdcdc"/><g fill="#435b67"><path d="m271.453 202.431h-30.905v-34.175c0-.552.146-1.092.419-1.55l13.014-21.781c.967-1.619 3.072-1.619 4.039 0l13.014 21.781c.273.457.419.997.419 1.55z"/><path d="m212.732 202.431h-30.905v-34.175c0-.552.146-1.092.419-1.55l13.014-21.781c.967-1.619 3.072-1.619 4.039 0l13.014 21.781c.273.457.419.997.419 1.55z"/><path d="m330.173 202.431h-30.905v-34.175c0-.552.146-1.092.419-1.55l13.014-21.781c.967-1.619 3.072-1.619 4.039 0l13.014 21.781c.273.457.419.997.419 1.55z"/></g><path d="m212.732 171.525h27.815v30.905h-27.815z" fill="#efefef"/><path d="m271.453 171.525h27.815v30.905h-27.815z" fill="#efefef"/><path d="m260.138 2.573 4.384 8.884c.672 1.362 1.971 2.306 3.475 2.525l9.802 1.425c3.785.55 5.296 5.202 2.558 7.873l-7.093 6.915c-1.088 1.06-1.584 2.588-1.327 4.085l1.674 9.764c.647 3.77-3.31 6.646-6.696 4.865l-8.767-4.61c-1.344-.707-2.95-.707-4.295 0l-8.767 4.61c-3.385 1.78-7.342-1.095-6.696-4.865l1.674-9.764c.257-1.497-.24-3.025-1.327-4.085l-7.093-6.915c-2.739-2.67-1.228-7.322 2.558-7.873l9.802-1.425c1.503-.218 2.802-1.163 3.475-2.525l4.384-8.884c1.692-3.431 6.582-3.431 8.275 0z" fill="#fece3f"/></g></svg>